<?xml version="1.0" standalone="no"?> <!DOCTYPE svg PUBLIC "-//W3C//DTD SVG 20010904//EN" "http://www.w3.org/TR/2001/REC-SVG-20010904/DTD/svg10.dtd"> <svg version="1.0" xmlns="http://www.w3.org/2000/svg" width="2400.000000pt" height="1516.000000pt" viewBox="0 0 2400.000000 1516.000000" preserveAspectRatio="xMidYMid meet"> <g transform="translate(0.000000,1516.000000) scale(0.100000,-0.100000)" fill="#ffffff" stroke="none"> <path d="M6741 12239 c-29 -17 -74 -38 -100 -48 -179 -71 -223 -91 -247 -110 -15 -11 -35 -21 -45 -21 -9 0 -30 -10 -46 -23 -15 -12 -63 -40 -107 -62 -43 -22 -93 -55 -112 -72 -18 -18 -42 -33 -52 -33 -18 0 -102 -63 -219 -166 -29 -25 -70 -55 -91 -67 -76 -43 -102 -64 -131 -103 -16 -21 -55 -61 -86 -89 -62 -54 -173 -157 -261 -242 -29 -29 -58 -53 -64 -53 -6 0 -19 -19 -29 -43 -10 -24 -31 -51 -46 -61 -15 -10 -38 -41 -51 -69 -14 -32 -43 -68 -73 -95 -27 -23 -69 -69 -92 -102 -26 -37 -49 -60 -61 -60 -10 0 -21 -8 -24 -17 -18 -58 -56 -111 -168 -233 -30 -33 -96 -125 -96 -135 0 -5 -24 -34 -53 -63 -74 -75 -70 -71 -200 -222 -64 -75 -128 -143 -142 -150 -14 -7 -25 -16 -25 -20 0 -15 -50 -60 -67 -60 -10 0 -28 17 -41 40 -24 42 -21 62 12 90 9 7 16 22 16 34 0 12 7 31 15 43 8 12 20 46 25 75 7 35 18 60 34 73 28 24 40 68 26 95 -30 56 -116 11 -151 -80 -21 -57 -64 -130 -96 -165 -19 -21 -126 -247 -137 -289 -3 -14 -10 -26 -15 -26 -5 0 -30 -33 -56 -72 -26 -40 -56 -84 -66 -98 -19 -25 -41 -57 -106 -155 -18 -27 -49 -72 -68 -100 -20 -27 -47 -66 -59 -85 -13 -19 -33 -44 -45 -54 -11 -11 -21 -30 -21 -42 0 -16 -10 -28 -29 -39 -16 -8 -32 -24 -36 -35 -3 -11 -19 -29 -35 -40 -16 -11 -32 -30 -36 -42 -4 -12 -33 -49 -66 -81 -102 -103 -131 -155 -108 -198 21 -39 80 -19 163 56 17 15 101 46 177 65 70 18 190 -31 190 -77 0 -7 9 -32 19 -55 53 -118 65 -177 69 -353 5 -193 -7 -290 -42 -333 -12 -15 -37 -54 -56 -87 -40 -73 -58 -98 -132 -180 -32 -36 -58 -69 -58 -74 0 -12 -103 -121 -115 -121 -4 0 -36 -25 -69 -56 -34 -30 -74 -68 -91 -83 -16 -15 -46 -38 -65 -51 -19 -13 -39 -30 -43 -37 -5 -8 -26 -25 -48 -39 -37 -23 -40 -28 -37 -62 3 -35 5 -37 36 -35 18 0 42 9 52 18 17 16 29 23 109 70 19 11 53 36 75 56 23 20 67 53 99 73 116 76 587 566 587 611 0 6 12 22 26 36 66 61 76 143 27 227 -52 89 -93 316 -76 422 5 32 6 96 0 155 -9 103 8 229 38 280 7 11 23 49 35 85 13 36 38 88 56 115 18 28 49 83 69 123 21 40 46 77 56 83 10 5 28 26 39 47 12 20 31 55 43 77 12 21 40 53 62 70 52 39 252 260 265 291 3 7 46 46 95 88 50 41 104 88 120 105 17 16 42 35 57 40 17 7 39 30 57 63 38 67 106 102 150 77 24 -14 26 -20 25 -79 -2 -102 -11 -181 -28 -229 -9 -24 -16 -58 -16 -75 0 -39 -37 -215 -84 -401 -20 -77 -36 -155 -36 -172 0 -18 -14 -59 -30 -90 -17 -32 -34 -78 -39 -103 -5 -25 -16 -63 -25 -85 -8 -22 -15 -48 -16 -58 0 -11 -7 -33 -15 -50 -17 -39 -41 -102 -67 -182 -11 -33 -25 -73 -32 -90 -38 -87 -66 -168 -66 -188 0 -13 -11 -38 -25 -57 -14 -19 -25 -46 -25 -61 0 -14 -8 -37 -19 -50 -10 -13 -30 -46 -45 -74 -77 -146 -185 -294 -366 -500 -85 -97 -66 -78 -235 -238 -213 -202 -245 -230 -315 -277 -36 -23 -78 -55 -95 -70 -26 -24 -72 -58 -179 -130 -12 -8 -33 -25 -46 -37 -60 -54 -193 -155 -287 -217 -57 -37 -103 -71 -103 -76 0 -5 -10 -12 -22 -16 -12 -3 -49 -25 -83 -48 -33 -22 -87 -57 -119 -76 -142 -85 -164 -137 -67 -156 25 -5 36 -2 52 15 11 11 24 21 29 21 5 0 25 14 44 30 19 17 65 47 103 67 37 19 91 52 118 73 28 21 61 41 75 45 36 11 102 51 167 101 31 24 61 44 67 44 5 0 21 11 35 24 15 13 64 38 111 56 47 18 102 46 122 61 20 16 41 29 47 29 6 0 26 14 44 30 19 17 39 30 44 30 6 0 18 9 28 20 10 11 30 20 44 20 14 0 37 7 51 15 14 8 36 19 50 26 14 6 88 42 165 79 77 38 160 71 185 75 92 15 259 15 303 0 23 -8 52 -15 65 -15 14 0 45 -20 78 -51 49 -48 54 -56 54 -96 0 -67 -46 -148 -131 -229 -39 -38 -78 -76 -85 -84 -8 -8 -37 -40 -65 -70 -78 -83 -149 -170 -149 -181 0 -14 -36 -62 -76 -103 -17 -17 -65 -71 -107 -121 -42 -49 -90 -103 -106 -120 -16 -16 -32 -40 -36 -52 -3 -13 -10 -23 -14 -23 -9 0 -82 -96 -156 -205 -90 -132 -110 -160 -121 -170 -7 -5 -49 -66 -95 -134 -46 -69 -93 -135 -104 -147 -11 -12 -33 -41 -50 -64 -171 -236 -257 -268 -367 -137 -62 73 -104 146 -124 214 -22 78 -85 193 -105 193 -9 0 -24 -9 -34 -20 -23 -26 -17 -69 29 -195 20 -55 41 -121 46 -147 5 -25 22 -75 38 -110 73 -160 88 -349 46 -573 -9 -44 -22 -96 -29 -115 -14 -38 -75 -294 -100 -425 -8 -44 -23 -100 -33 -125 -25 -66 -24 -662 1 -729 9 -24 17 -55 17 -70 0 -63 78 -337 143 -501 39 -100 160 -344 190 -384 13 -17 27 -38 31 -46 32 -65 147 -247 196 -312 19 -25 51 -69 70 -97 41 -61 41 -61 102 -106 59 -44 78 -45 78 -5 0 29 -26 74 -109 190 -22 30 -40 60 -41 66 0 6 -27 49 -59 96 -33 47 -83 139 -112 204 -28 66 -56 124 -61 131 -5 7 -16 36 -24 65 -50 179 -68 252 -80 322 -7 43 -18 93 -24 110 -24 76 -30 157 -30 479 -2 354 10 508 45 591 8 20 15 51 15 70 0 107 77 165 158 121 26 -14 64 -58 222 -259 87 -110 230 -246 259 -246 13 0 26 10 33 26 16 34 -1 64 -107 192 -46 55 -87 113 -91 128 -4 16 -21 61 -39 99 -85 189 -112 324 -102 508 7 111 8 117 56 213 27 54 63 117 81 139 18 22 39 54 47 70 9 17 39 57 68 90 28 33 64 78 78 99 35 52 136 165 272 303 60 61 146 151 190 199 89 97 126 124 171 124 30 0 93 -38 123 -73 7 -9 18 -17 23 -17 12 0 69 -42 129 -95 25 -22 90 -74 144 -115 54 -41 115 -90 137 -107 46 -38 73 -42 88 -12 16 29 -18 105 -81 185 -27 34 -53 72 -59 85 -6 13 -26 49 -45 79 -19 30 -34 62 -35 70 0 8 -9 30 -20 47 -32 54 -45 154 -44 343 2 157 4 179 23 215 12 21 21 44 21 51 0 6 22 42 50 80 27 38 50 73 50 78 0 5 15 26 33 47 17 21 59 73 92 115 33 42 81 101 108 130 26 30 47 58 47 62 0 4 43 53 95 107 52 55 95 105 95 111 0 5 57 68 126 140 69 71 145 159 170 196 36 54 53 70 88 83 77 29 104 0 111 -118 1 -30 7 -69 13 -88 12 -37 45 -275 62 -454 7 -60 16 -139 20 -175 36 -261 -19 -587 -122 -718 -93 -120 -110 -150 -99 -171 22 -40 50 -46 80 -17 15 14 34 26 43 26 8 0 37 12 63 26 45 25 49 26 99 14 67 -16 182 -122 224 -207 9 -18 19 -33 24 -33 4 0 19 -22 32 -48 13 -27 32 -54 41 -62 9 -7 26 -31 38 -53 12 -22 28 -51 35 -64 17 -31 270 -281 340 -336 159 -125 208 -157 372 -244 36 -19 80 -44 98 -55 18 -11 54 -26 80 -33 26 -8 85 -28 132 -45 47 -17 109 -38 138 -46 30 -8 75 -29 100 -45 26 -17 84 -54 128 -84 45 -29 128 -91 185 -137 143 -117 181 -135 213 -102 35 34 2 168 -61 251 -63 83 -85 204 -62 342 16 93 139 338 213 421 12 14 37 45 56 70 31 41 135 153 216 234 39 40 93 85 174 145 36 27 93 74 128 105 34 31 67 56 73 56 6 0 19 21 31 46 25 58 12 71 -41 43 -20 -10 -39 -19 -43 -19 -5 0 -30 -16 -57 -35 -26 -19 -53 -35 -58 -35 -6 0 -17 -8 -24 -17 -8 -9 -32 -29 -54 -45 -184 -133 -587 -505 -637 -588 -15 -25 -48 -76 -73 -115 -25 -38 -54 -88 -64 -109 -11 -21 -38 -54 -62 -73 -68 -54 -118 -43 -334 70 -186 98 -507 366 -549 457 -9 19 -34 64 -56 100 -66 108 -90 215 -90 406 0 145 7 189 50 304 15 41 35 102 45 135 9 33 25 86 36 118 26 78 25 124 -2 132 -45 15 -66 -2 -89 -70 -12 -36 -26 -67 -31 -71 -5 -3 -27 -30 -49 -60 -39 -52 -100 -94 -137 -94 -35 1 -103 77 -103 115 0 11 -9 38 -19 58 -10 21 -22 70 -26 110 -4 39 -15 113 -26 162 -10 50 -21 122 -24 160 -3 39 -13 108 -20 155 -17 98 -43 299 -55 415 -5 44 -15 103 -24 130 -27 91 -41 198 -41 310 0 108 1 112 39 188 21 42 42 80 47 82 4 3 10 18 14 34 3 15 21 43 40 61 19 19 35 42 35 51 0 10 10 30 23 46 12 15 28 40 35 55 6 16 31 58 55 95 25 38 47 80 51 96 3 15 11 27 16 27 5 0 21 21 34 48 13 26 33 58 45 71 12 13 21 33 21 43 0 11 11 34 24 51 13 18 54 95 91 172 149 312 232 472 264 510 9 11 28 38 42 60 14 22 41 65 61 95 19 30 47 76 62 103 15 26 31 47 36 47 5 0 17 15 26 33 30 60 78 119 175 216 53 53 102 106 109 119 6 13 24 28 39 33 15 5 35 23 45 39 9 17 35 39 56 50 22 11 44 29 50 40 6 11 26 26 44 34 45 19 126 98 126 123 0 24 -30 53 -55 53 -18 0 -65 -29 -222 -136 -40 -27 -93 -59 -118 -72 -25 -12 -45 -27 -45 -32 0 -5 -18 -21 -39 -35 -57 -35 -308 -289 -361 -364 -25 -34 -60 -78 -77 -97 -18 -19 -33 -41 -33 -49 0 -7 -13 -23 -30 -35 -16 -12 -30 -30 -30 -40 0 -10 -13 -31 -28 -48 -55 -58 -109 -138 -147 -215 -21 -42 -44 -82 -52 -88 -7 -6 -13 -19 -13 -29 0 -9 -9 -29 -21 -44 -12 -15 -31 -44 -43 -65 -11 -21 -36 -57 -54 -81 -17 -24 -37 -59 -42 -79 -6 -20 -33 -65 -60 -101 -31 -39 -53 -80 -56 -102 -4 -20 -15 -45 -25 -54 -11 -9 -19 -23 -19 -30 0 -7 -10 -25 -23 -41 -35 -43 -83 -134 -91 -173 -9 -49 -52 -90 -93 -90 -54 0 -68 39 -65 185 1 96 -2 132 -17 180 -11 33 -23 80 -26 105 -4 25 -11 59 -16 77 -9 29 -21 239 -21 388 -1 78 50 398 68 433 8 15 14 37 14 50 0 12 9 39 20 59 11 21 20 53 20 72 0 25 9 44 28 66 45 48 122 184 122 216 0 41 -40 60 -78 37 -29 -17 -89 -98 -122 -163 -36 -72 -74 -121 -131 -171 -13 -11 -43 -48 -67 -81 -48 -68 -58 -73 -155 -73 -76 0 -138 24 -159 63 -21 38 -13 268 12 324 11 25 27 73 36 107 9 33 23 73 31 90 8 16 29 68 45 115 16 47 37 95 47 106 10 11 24 36 31 55 7 19 28 58 46 85 38 59 74 126 74 138 0 5 15 23 33 42 58 60 89 99 131 165 22 36 61 84 85 105 24 22 60 65 79 95 47 73 119 148 157 164 16 8 66 48 110 90 44 42 83 76 86 76 3 0 27 20 53 45 27 25 53 45 59 45 6 0 20 9 32 20 25 25 78 63 127 90 46 25 86 94 67 116 -19 24 -88 16 -148 -17z m-166 -189 c0 -9 -15 -19 -36 -24 -23 -6 -42 -19 -52 -36 -9 -15 -42 -49 -73 -76 -31 -27 -73 -66 -93 -86 -24 -25 -46 -38 -62 -38 -35 0 -114 -62 -127 -100 -9 -25 -16 -30 -41 -30 -24 0 -31 4 -31 19 0 26 -17 36 -35 21 -22 -18 -18 -40 6 -40 21 0 68 -37 69 -54 0 -4 -33 -41 -74 -81 -41 -40 -82 -87 -90 -104 -19 -35 -49 -41 -78 -15 -16 16 -18 16 -24 0 -6 -17 -3 -29 18 -58 14 -20 -6 -65 -48 -106 -13 -13 -24 -28 -24 -35 0 -7 -21 -33 -46 -57 -39 -39 -44 -49 -40 -75 8 -40 -13 -76 -49 -88 -49 -16 -51 -21 -49 -102 3 -75 3 -75 -36 -95 -43 -22 -61 -60 -40 -85 15 -18 -2 -77 -46 -158 -22 -40 -37 -143 -30 -212 3 -33 2 -66 -3 -74 -6 -10 -5 -22 5 -35 8 -11 14 -39 14 -62 0 -38 3 -43 51 -74 43 -28 57 -32 92 -27 24 4 67 0 99 -9 56 -14 59 -14 105 9 27 14 64 27 83 31 33 6 36 4 58 -37 26 -49 27 -65 8 -86 -8 -9 -24 -68 -37 -131 -17 -89 -28 -120 -46 -137 -28 -27 -28 -28 -2 -65 20 -28 21 -39 16 -133 -4 -71 -2 -106 6 -114 11 -11 12 -118 1 -153 -3 -9 -13 -20 -23 -23 -11 -3 -25 -20 -32 -36 -11 -28 -10 -36 12 -75 25 -46 49 -58 49 -25 0 21 46 81 61 81 15 0 10 -95 -6 -126 -19 -37 -19 -75 0 -121 9 -20 13 -44 10 -54 -6 -17 86 -197 108 -210 5 -4 27 -4 49 -1 34 4 43 1 74 -29 37 -36 45 -77 19 -99 -13 -11 -20 -9 -38 9 -13 11 -31 21 -40 21 -27 0 -33 -30 -11 -49 43 -35 45 -44 24 -101 -17 -48 -33 -69 -51 -70 -3 0 -16 -18 -28 -40 -18 -33 -20 -44 -11 -55 9 -10 10 -34 6 -78 -6 -50 -4 -66 7 -76 21 -17 30 -76 15 -100 -10 -16 -9 -23 4 -38 18 -22 31 -129 17 -154 -6 -13 -4 -31 7 -60 14 -33 15 -46 6 -60 -25 -40 -5 -142 23 -119 24 20 30 -14 12 -73 -28 -96 -29 -124 -1 -157 17 -20 23 -36 19 -49 -9 -30 16 -101 42 -118 28 -19 29 -43 4 -72 -49 -56 -49 -134 -1 -128 31 3 66 -98 44 -130 -19 -30 -18 -62 6 -100 28 -47 128 -181 140 -188 6 -4 22 -29 35 -56 24 -46 46 -61 60 -39 10 17 61 11 78 -8 26 -29 31 -75 12 -112 -12 -23 -18 -66 -21 -144 -5 -111 -5 -111 -39 -141 -31 -26 -34 -34 -27 -59 9 -31 32 -48 32 -23 0 8 7 20 15 27 34 29 73 -147 45 -201 -10 -17 -6 -21 22 -33 30 -13 34 -19 43 -77 9 -54 14 -65 40 -79 16 -9 32 -27 35 -40 3 -13 12 -26 20 -30 57 -27 78 -43 103 -77 36 -49 51 -83 48 -109 -1 -15 9 -28 33 -44 22 -13 36 -30 36 -41 0 -11 7 -22 15 -25 8 -4 15 -13 15 -21 0 -11 -6 -10 -26 6 -15 12 -34 21 -43 21 -9 0 -29 14 -44 31 -24 28 -31 30 -66 24 -45 -7 -62 10 -58 61 2 25 -2 29 -25 32 -21 2 -30 11 -38 38 -6 19 -20 39 -31 44 -10 6 -19 17 -19 25 0 22 -17 27 -53 17 -32 -9 -33 -8 -29 13 2 15 -4 31 -17 44 -12 12 -21 33 -21 49 0 48 -23 64 -68 48 -34 -12 -72 17 -72 55 0 17 6 32 15 35 8 4 15 12 15 20 0 19 -26 18 -34 -2 -3 -9 -15 -14 -28 -12 -21 3 -23 9 -23 58 0 50 -2 55 -24 58 -17 3 -29 16 -44 53 -14 32 -27 49 -38 49 -29 0 -132 66 -158 101 -21 28 -23 36 -13 62 13 34 8 47 -18 47 -11 0 -20 -10 -24 -25 -10 -38 -76 -26 -76 15 0 10 -7 25 -15 34 -31 31 -10 107 50 181 42 51 44 57 37 92 -6 29 -13 37 -26 35 -40 -7 -47 4 -30 50 8 23 21 46 29 50 26 15 29 67 6 89 -12 11 -21 23 -22 27 0 4 -2 68 -5 142 -2 87 -10 156 -21 194 -18 61 -13 74 30 89 14 4 -13 140 -30 150 -7 4 -13 19 -13 32 0 13 -12 35 -26 49 -24 22 -28 35 -38 144 -11 110 -14 123 -38 145 -15 14 -34 42 -43 62 -14 35 -14 39 2 50 15 11 15 15 4 29 -19 22 -48 20 -54 -4 -7 -27 -42 -26 -61 2 -14 20 -19 21 -49 10 -54 -19 -147 -7 -147 20 0 31 23 50 53 44 53 -11 94 47 42 60 -32 8 -31 10 4 40 17 14 33 33 36 44 3 10 20 24 38 30 52 17 70 52 62 116 -7 56 -1 66 20 37 35 -48 63 41 30 97 -86 147 -109 259 -54 273 17 5 20 12 17 49 -2 32 -7 42 -18 39 -39 -9 -45 -5 -55 36 -6 23 -16 48 -22 54 -6 6 -9 26 -6 45 3 18 -2 72 -12 121 -11 53 -18 139 -19 218 -1 129 -1 129 -34 136 -50 10 -53 17 -67 137 -14 122 -17 132 -43 125 -10 -2 -26 5 -36 16 -11 12 -37 26 -58 31 -36 10 -41 9 -83 -26 -44 -37 -58 -61 -71 -119 -11 -49 -40 -74 -80 -68 -40 7 -44 -6 -14 -55 25 -41 25 -64 0 -87 -11 -10 -20 -30 -21 -44 0 -42 -34 -115 -57 -126 -19 -9 -21 -15 -16 -61 8 -62 -8 -98 -38 -91 -15 4 -23 -1 -31 -23 -6 -16 -21 -31 -33 -34 -24 -6 -36 -28 -28 -51 10 -26 34 -16 41 16 7 37 29 48 50 26 13 -13 14 -24 7 -59 -9 -40 -12 -43 -41 -41 -28 3 -31 0 -36 -33 -8 -50 -23 -64 -58 -57 -25 5 -30 2 -39 -23 -13 -32 11 -60 40 -49 8 4 27 9 43 12 25 5 27 3 27 -25 0 -22 -7 -35 -22 -43 -31 -16 -38 -28 -38 -67 0 -28 -5 -36 -30 -45 -25 -9 -33 -21 -45 -60 -8 -27 -26 -60 -40 -73 -21 -19 -25 -32 -25 -77 0 -29 -6 -59 -12 -66 -11 -10 -10 -14 5 -22 19 -11 22 -31 6 -60 -9 -17 -13 -18 -25 -8 -24 20 -36 -8 -29 -64 5 -44 3 -51 -24 -76 -31 -29 -33 -67 -4 -78 11 -4 12 -19 7 -65 -6 -50 -4 -62 13 -81 35 -39 53 -76 53 -105 0 -37 22 -56 54 -48 19 5 29 -1 50 -29 24 -31 33 -35 71 -35 50 0 54 -4 63 -67 9 -60 33 -71 30 -14 -2 51 13 68 67 77 25 3 46 13 50 21 4 12 16 14 55 10 49 -6 50 -5 106 45 56 52 56 52 50 100 -7 48 -7 49 29 64 20 8 39 22 42 32 3 9 12 24 20 32 8 8 20 24 28 35 14 20 15 19 46 -12 45 -44 34 -79 -31 -102 -67 -23 -70 -27 -70 -81 0 -47 -1 -49 -36 -60 -25 -9 -39 -21 -46 -41 -14 -40 -122 -119 -163 -119 -45 0 -79 -38 -70 -79 5 -25 3 -31 -9 -31 -22 0 -57 -59 -54 -89 3 -27 -21 -47 -46 -38 -9 4 -16 17 -16 31 0 37 -10 56 -30 56 -24 0 -35 -65 -15 -94 22 -31 18 -43 -15 -49 -24 -5 -30 -12 -30 -31 0 -14 5 -28 10 -31 15 -9 12 -41 -6 -56 -19 -15 -34 2 -34 39 0 38 -18 24 -32 -25 -17 -61 -32 -64 -48 -9 -20 71 -54 70 -79 -3 -12 -38 -2 -61 29 -61 25 0 50 -10 50 -21 0 -13 -72 -79 -87 -79 -15 0 -17 -21 -4 -35 17 -18 -8 -100 -40 -130 -16 -16 -29 -34 -29 -40 0 -19 -57 -67 -76 -63 -14 2 -20 -6 -27 -42 -5 -25 -18 -57 -29 -72 -20 -29 -16 -60 5 -39 20 20 45 11 61 -23 21 -44 20 -59 -4 -81 -21 -19 -26 -50 -10 -60 6 -3 10 -31 10 -61 0 -57 -10 -66 -41 -38 -12 11 -27 14 -44 10 -34 -9 -32 -33 5 -41 27 -6 29 -10 28 -49 0 -23 2 -52 6 -63 11 -35 -16 -47 -49 -21 -15 12 -44 24 -64 27 -30 5 -37 11 -39 34 -4 29 -22 34 -66 17 -16 -6 -24 -15 -20 -23 9 -26 -45 -52 -80 -38 -23 8 -32 8 -35 0 -7 -21 -41 -49 -59 -49 -11 0 -24 11 -30 25 -16 35 -38 31 -58 -10 -10 -21 -24 -35 -34 -35 -22 0 -80 -47 -80 -65 0 -7 7 -18 15 -25 8 -7 15 -28 15 -46 0 -19 5 -34 10 -34 6 0 10 -7 10 -15 0 -20 -17 -19 -28 1 -16 29 -47 12 -47 -26 0 -40 -10 -60 -30 -60 -22 0 -46 30 -40 51 5 14 -1 22 -22 31 -49 22 -58 53 -19 68 14 5 30 18 36 29 6 12 25 28 41 37 31 16 31 16 -1 35 -35 22 -35 41 1 49 16 4 28 17 34 37 14 44 18 46 72 47 59 1 66 21 28 77 -29 41 -23 69 15 69 9 0 30 10 45 21 15 12 41 25 58 28 41 9 59 51 34 79 -10 11 -15 26 -11 36 8 20 20 21 31 1 10 -17 61 -34 81 -28 15 6 15 27 0 71 -12 33 -12 34 40 83 28 27 52 53 52 59 0 5 16 16 35 24 24 10 35 22 35 35 0 14 11 26 33 35 29 12 34 11 53 -5 29 -27 36 -24 32 14 -2 26 -8 33 -30 35 -20 2 -28 10 -33 32 -8 38 2 53 31 46 19 -5 26 0 39 24 14 28 35 41 35 23 0 -5 7 -17 15 -27 14 -18 15 -18 34 5 26 30 26 44 1 62 -19 13 -19 14 3 45 12 17 32 34 45 37 19 5 22 12 22 56 0 40 5 55 24 72 21 20 23 32 29 162 3 82 2 147 -4 157 -11 21 -50 24 -79 6 -24 -15 -67 5 -89 43 -8 14 -37 36 -63 48 -44 20 -54 21 -98 11 -45 -11 -50 -10 -70 10 -20 20 -23 20 -45 6 -22 -15 -105 -23 -105 -11 0 3 7 17 16 30 9 13 13 29 9 35 -11 18 -35 11 -45 -15 -5 -13 -20 -27 -34 -31 -15 -3 -29 -17 -34 -34 -9 -23 -17 -28 -59 -33 -26 -3 -58 -9 -70 -12 -16 -5 -25 -3 -29 10 -8 19 50 74 79 75 10 0 34 16 54 35 20 20 47 38 59 41 17 4 24 16 29 44 4 26 13 40 26 43 25 7 24 24 -1 32 -11 3 -20 15 -20 25 0 51 34 68 50 25 12 -31 28 -32 39 -2 6 15 4 27 -5 38 -43 48 6 95 67 65 29 -15 30 -14 72 31 52 56 53 58 33 88 -20 30 -13 50 25 65 17 7 36 25 44 40 8 15 21 30 30 34 12 4 15 16 10 53 -8 68 2 78 73 75 65 -3 86 10 80 50 -2 17 -11 24 -30 26 -37 4 -37 35 -1 68 25 23 25 25 8 44 -16 18 -17 21 -1 45 20 30 22 30 64 5 33 -20 33 -20 48 16 18 42 12 51 -36 56 -28 2 -36 8 -38 26 -3 22 7 34 67 81 24 18 24 19 8 44 -23 35 -21 45 6 49 24 3 23 1 11 111 -6 50 5 62 21 25 6 -13 15 -23 20 -23 15 0 18 75 4 102 -15 29 -4 43 15 18 8 -12 19 -16 31 -11 16 6 17 16 12 106 -5 84 -4 100 9 100 15 0 28 -25 39 -74 8 -38 21 -22 28 36 6 43 4 49 -18 64 -43 28 -27 127 17 112 8 -3 13 -22 13 -49 0 -42 1 -44 30 -44 38 0 45 27 17 64 -11 15 -24 49 -30 76 -10 46 -10 52 9 67 23 19 39 16 39 -8 0 -8 11 -19 24 -24 14 -5 26 -19 28 -32 4 -30 34 -36 43 -9 8 26 -1 41 -26 41 -10 0 -19 6 -19 14 0 21 -59 90 -83 96 -31 8 -36 66 -8 87 16 10 21 25 21 57 0 25 6 49 14 55 8 7 15 40 18 89 2 42 9 86 15 97 26 52 41 118 30 135 -8 13 -7 45 3 120 13 102 13 103 27 69 11 -27 16 -31 23 -19 14 22 12 60 -4 66 -8 3 -17 28 -21 59 -9 72 -35 105 -84 105 -25 0 -44 7 -55 19 -10 11 -30 22 -44 26 -37 9 -82 54 -82 82 0 30 45 32 92 3 39 -24 48 -25 48 -5 0 8 -11 22 -25 31 -14 9 -25 22 -25 29 0 7 -7 15 -15 19 -24 9 -17 35 11 42 18 5 34 0 54 -15 35 -25 90 -29 90 -6 0 26 -31 65 -52 65 -35 0 -15 32 32 49 35 13 47 23 53 46 5 17 15 43 23 58 8 16 14 36 14 46 0 9 6 26 14 37 13 16 18 17 35 7 50 -31 68 -12 63 66 0 8 18 35 40 60 22 25 46 58 54 74 8 15 18 27 23 27 4 0 13 11 21 24 7 14 26 30 43 37 26 11 31 10 46 -10 14 -19 21 -21 44 -12 15 6 27 15 27 21 0 10 -8 13 -50 14 -34 1 -39 33 -7 45 14 6 28 14 31 20 3 5 20 12 36 16 17 4 30 11 30 16 0 5 16 26 35 48 19 21 35 44 35 50 0 6 15 21 34 32 19 11 42 31 50 45 9 13 22 24 29 24 8 0 32 16 54 35 23 19 46 35 52 35 13 0 101 73 156 129 22 23 46 41 53 41 7 0 30 18 51 40 34 36 43 40 87 40 58 0 71 7 75 40 3 18 12 26 37 31 18 4 41 13 50 21 25 21 87 48 110 48 19 0 27 6 60 45 17 20 57 16 57 -5z m-1795 -1559 c0 -5 12 -23 26 -40 29 -35 26 -57 -9 -70 -19 -7 -23 -15 -20 -34 7 -38 -12 -41 -46 -8 -36 35 -38 49 -11 83 11 14 24 37 30 52 9 25 30 36 30 17z m-122 -195 c5 -26 -26 -50 -45 -35 -16 14 -17 31 -1 47 17 17 42 11 46 -12z m-192 -200 c6 -17 -12 -56 -26 -56 -11 0 -14 53 -3 63 11 11 23 8 29 -7z m2664 -2 c0 -8 -71 -113 -80 -119 -5 -3 -11 -1 -14 4 -7 11 39 101 57 113 14 9 37 10 37 2z m-110 -155 c0 -12 -12 -34 -27 -49 -16 -16 -37 -39 -47 -51 -14 -16 -21 -19 -24 -10 -2 7 10 27 27 45 17 18 31 39 31 47 0 16 19 39 32 39 4 0 8 -9 8 -21z m-3085 -68 c-5 -18 8 -56 39 -109 19 -33 22 -35 44 -21 32 20 50 -2 48 -56 -3 -59 -12 -65 -41 -30 -22 28 -25 29 -41 13 -17 -17 -20 -47 -8 -110 4 -23 2 -38 -4 -38 -5 0 -19 -16 -31 -35 -24 -42 -38 -43 -87 -10 -45 30 -62 31 -72 4 -4 -11 -19 -26 -32 -32 -35 -18 -35 -62 0 -62 21 0 26 5 28 33 4 37 15 39 59 13 29 -18 31 -23 23 -54 -11 -51 -18 -59 -40 -47 -17 9 -22 5 -40 -29 -11 -22 -20 -58 -20 -81 0 -33 -3 -40 -19 -40 -10 0 -26 -11 -35 -25 -11 -17 -26 -25 -44 -25 -17 0 -32 -8 -40 -21 -19 -30 5 -52 55 -53 34 -1 38 -3 35 -25 -1 -14 -14 -39 -27 -57 -30 -39 -31 -46 -5 -69 16 -14 20 -31 20 -79 0 -55 -3 -64 -31 -90 -25 -24 -32 -27 -40 -15 -10 15 -7 62 5 90 15 34 -70 71 -89 39 -3 -5 -18 -10 -32 -10 -25 0 -25 2 -20 45 6 42 5 45 -20 51 -16 5 -45 1 -71 -8 -35 -13 -44 -14 -48 -3 -9 22 15 54 44 61 50 11 52 13 50 46 -3 26 1 33 22 38 31 7 39 44 15 70 -27 30 -16 55 26 55 27 1 42 8 62 30 23 28 44 106 32 125 -3 5 4 11 15 15 11 3 20 15 20 25 0 11 33 58 74 104 41 48 77 99 81 116 8 35 21 39 30 9 9 -26 41 -21 37 6 -2 11 -11 28 -20 38 -18 20 -9 34 28 39 24 3 25 5 28 96 3 85 4 92 23 92 16 0 19 -5 14 -19z m235 -88 c0 -20 -44 -66 -54 -56 -13 13 -5 41 17 56 29 21 37 21 37 0z m2730 -2 c0 -21 -13 -41 -26 -41 -17 0 -18 22 -2 38 14 14 28 16 28 3z m-58 -114 c-6 -12 -13 -42 -15 -65 -4 -28 -12 -49 -24 -57 -11 -8 -28 -32 -38 -54 -10 -22 -22 -38 -27 -35 -16 10 3 98 28 124 12 14 30 43 40 65 16 38 33 59 43 49 2 -2 -1 -14 -7 -27z m-1441 -184 c8 -9 14 -39 15 -67 1 -28 11 -94 24 -146 12 -52 25 -120 29 -150 4 -30 9 -60 13 -65 4 -6 18 -75 32 -153 14 -78 30 -151 36 -161 5 -11 7 -33 4 -49 -4 -17 0 -41 9 -58 8 -16 17 -63 20 -104 3 -41 15 -99 26 -128 16 -39 21 -75 21 -141 0 -88 0 -88 -52 -137 -28 -27 -84 -80 -124 -119 -40 -38 -107 -101 -149 -140 -42 -38 -94 -93 -116 -122 -21 -28 -47 -54 -56 -57 -10 -3 -36 -29 -58 -57 -46 -58 -80 -79 -127 -79 -43 0 -54 8 -72 51 -8 20 -22 42 -31 49 -9 8 -27 35 -41 61 -23 45 -23 52 -15 163 6 86 14 123 29 148 11 18 18 38 16 44 -3 6 5 19 16 29 12 10 20 31 20 48 0 17 13 51 29 76 16 25 35 66 41 90 6 24 23 69 37 100 30 68 69 176 89 251 8 30 21 67 29 82 8 14 15 37 15 51 0 13 11 49 25 79 25 55 56 161 80 278 7 36 19 79 25 95 12 30 29 124 33 180 4 55 23 75 71 75 28 0 48 -6 57 -17z m1279 -78 c7 -8 19 -15 26 -15 24 0 15 -25 -16 -48 -16 -13 -30 -30 -30 -40 -1 -50 -99 -182 -136 -182 -24 0 -9 51 32 111 19 28 34 58 34 65 0 8 12 26 26 39 20 18 23 28 16 42 -19 38 20 61 48 28z m-166 -334 c19 -21 13 -44 -22 -84 -14 -16 -16 -16 -34 -1 -24 23 -23 59 4 84 27 25 31 25 52 1z m-84 -156 c10 -36 10 -48 0 -60 -31 -37 -56 6 -39 65 16 51 23 50 39 -5z m-82 -90 c3 -27 -14 -49 -30 -39 -10 6 -11 58 -1 68 13 13 28 -1 31 -29z m-35 -138 c12 -37 3 -57 -26 -57 -45 0 -61 38 -30 72 22 25 44 19 56 -15z m-1464 -399 c0 -10 -3 -18 -9 -18 -5 0 -9 21 -9 48 1 42 2 44 9 17 4 -16 8 -38 9 -47z m-779 -633 c0 -9 -11 -21 -25 -27 -14 -6 -25 -15 -25 -20 0 -4 -7 -8 -15 -8 -28 0 -9 37 30 58 27 15 35 15 35 -3z m1190 -10 c0 -3 -4 -13 -9 -23 -6 -9 -12 -29 -16 -44 -5 -24 -10 -28 -40 -28 -44 0 -44 3 7 56 38 40 58 53 58 39z m-719 -1602 c12 -32 3 -83 -16 -83 -15 0 -25 22 -25 55 0 56 24 72 41 28z m-538 -142 c10 -10 -35 -101 -50 -101 -7 0 -13 10 -14 23 -2 34 2 81 8 90 5 8 42 0 56 -12z m-280 -232 c42 -48 36 -87 -10 -66 -23 10 -28 8 -57 -24 -17 -20 -36 -44 -43 -55 -16 -26 -33 -3 -33 48 0 32 7 42 52 82 29 25 55 46 58 46 3 0 18 -14 33 -31z m-168 -76 c5 -21 2 -31 -10 -38 -50 -30 -52 -34 -27 -54 12 -11 22 -26 22 -34 0 -28 27 -41 40 -18 15 30 32 26 28 -6 -2 -17 -13 -32 -32 -43 -32 -17 -35 -21 -68 -97 -24 -57 -48 -57 -48 -2 0 24 -4 29 -25 29 -40 0 -63 73 -31 99 23 19 56 -3 56 -37 0 -36 18 -56 37 -41 19 16 17 108 -2 115 -24 10 -20 89 7 124 27 37 44 38 53 3z m-137 -307 c8 -37 -9 -66 -46 -84 -24 -11 -43 -30 -55 -55 -11 -20 -32 -44 -48 -52 -39 -21 -40 -61 -3 -75 19 -7 31 -7 40 1 11 9 14 8 14 -4 0 -9 -6 -20 -13 -24 -7 -4 -24 -26 -37 -48 -13 -22 -25 -42 -26 -44 -9 -11 -34 25 -34 50 0 41 -15 36 -28 -10 -16 -51 -15 -76 3 -91 21 -18 19 -47 -5 -60 -14 -7 -20 -21 -20 -45 0 -18 -4 -37 -10 -40 -14 -9 -12 -35 7 -94 16 -52 16 -52 -15 -114 -18 -34 -32 -69 -32 -78 0 -36 -28 -43 -78 -21 -26 12 -67 23 -92 25 -64 5 -65 28 -5 112 16 23 19 42 16 106 -2 67 0 80 18 98 24 24 26 34 9 60 -14 23 6 97 28 105 18 7 18 30 -1 46 -26 21 -17 55 28 103 50 53 81 72 122 72 24 0 31 5 33 23 2 14 14 28 31 35 15 7 33 18 41 25 8 7 24 19 35 27 17 12 18 17 8 34 -16 26 -16 34 0 28 7 -2 30 -1 52 3 50 10 59 8 63 -14z m3662 -46 c6 -11 21 -20 33 -20 22 0 47 -16 47 -31 0 -4 -18 -9 -40 -11 -36 -3 -40 -1 -40 19 0 18 -7 25 -30 30 -24 4 -28 8 -19 19 16 20 37 17 49 -6z m146 -94 c13 -10 16 -18 9 -25 -34 -33 -115 -12 -86 23 17 20 51 21 77 2z m288 -112 c9 -8 16 -18 16 -22 0 -9 -81 -52 -97 -52 -18 0 -16 19 1 26 8 3 19 19 25 35 11 32 31 37 55 13z m228 -96 c3 -38 6 -43 31 -48 26 -5 27 -6 13 -25 -14 -20 -15 -19 -45 10 -17 17 -31 38 -31 47 0 9 -7 21 -16 26 -22 12 -9 32 21 32 21 0 24 -5 27 -42z m-4854 -740 c-2 -13 -7 -23 -13 -23 -5 0 -11 10 -13 23 -2 15 2 22 13 22 11 0 15 -7 13 -22z"/> <path d="M5651 11397 c-13 -16 -5 -27 20 -27 14 0 29 18 29 36 0 10 -39 3 -49 -9z"/> <path d="M5366 11114 c-17 -16 -22 -44 -8 -44 10 0 52 43 52 53 0 13 -28 7 -44 -9z"/> <path d="M5497 10973 c-9 -9 -9 -55 1 -70 15 -23 59 34 48 63 -6 14 -37 19 -49 7z"/> <path d="M5243 10773 c-7 -2 -13 -16 -13 -29 0 -21 5 -24 35 -24 30 0 35 3 35 24 0 29 -25 42 -57 29z"/> <path d="M5432 10698 c-14 -14 -15 -37 -3 -57 7 -11 12 -7 24 15 21 42 7 70 -21 42z"/> <path d="M5072 10588 c5 -32 28 -35 28 -4 0 17 -5 26 -16 26 -10 0 -14 -7 -12 -22z"/> <path d="M5076 10062 c-8 -23 -1 -42 14 -42 15 0 19 28 6 46 -13 17 -14 16 -20 -4z"/> <path d="M5877 10043 c-11 -10 -8 -71 4 -78 11 -7 49 22 49 37 0 8 -36 48 -43 48 -2 0 -7 -3 -10 -7z"/> <path d="M5633 10013 c-13 -2 -23 -8 -23 -14 0 -16 51 -22 78 -9 25 12 26 13 7 21 -22 8 -28 9 -62 2z"/> <path d="M5780 10008 c0 -7 5 -20 10 -28 12 -19 35 2 27 24 -7 19 -37 21 -37 4z"/> <path d="M5837 9904 c-4 -4 -7 -29 -7 -56 0 -63 24 -61 28 2 3 41 -7 68 -21 54z"/> <path d="M5160 9650 c-13 -9 -13 -11 0 -20 21 -13 36 -12 49 3 20 25 -18 37 -49 17z"/> <path d="M5014 9626 c-7 -17 22 -86 35 -86 15 0 14 73 -1 88 -16 16 -27 15 -34 -2z"/> <path d="M5117 9523 c-12 -20 -19 -91 -9 -97 12 -7 29 12 37 44 6 26 -17 71 -28 53z"/> <path d="M5675 9480 c-29 -55 7 -83 38 -29 22 39 21 45 -3 52 -15 4 -24 -2 -35 -23z"/> <path d="M5825 9371 c-7 -23 4 -53 19 -48 18 6 20 67 2 67 -8 0 -17 -8 -21 -19z"/> <path d="M4900 9041 c0 -25 19 -38 31 -20 12 19 6 33 -14 37 -11 2 -17 -3 -17 -17z"/> <path d="M5669 8913 c-15 -41 -8 -158 11 -158 11 0 17 17 23 60 13 99 -9 163 -34 98z"/> <path d="M4797 8823 c-11 -10 -8 -73 3 -73 13 0 32 49 26 67 -6 14 -19 17 -29 6z"/> <path d="M5877 8776 c-11 -27 -8 -106 3 -106 6 0 11 5 11 10 5 37 4 78 -1 94 -6 18 -7 18 -13 2z"/> <path d="M5960 8567 c0 -27 28 -57 53 -57 23 0 21 22 -4 54 -26 33 -49 34 -49 3z"/> <path d="M5865 8271 c-9 -29 5 -52 29 -49 16 2 22 11 24 36 3 28 0 32 -22 32 -15 0 -27 -7 -31 -19z"/> <path d="M4558 8052 c-4 -48 1 -74 13 -67 12 8 12 105 0 105 -5 0 -11 -17 -13 -38z"/> <path d="M5637 7984 c-17 -17 -5 -34 24 -34 24 0 30 4 27 18 -3 17 -38 29 -51 16z"/> <path d="M5707 7924 c-4 -4 -7 -22 -7 -41 0 -27 4 -33 21 -33 17 0 20 5 17 37 -3 35 -17 51 -31 37z"/> <path d="M4521 7858 c0 -33 2 -38 9 -23 12 28 12 65 0 65 -5 0 -10 -19 -9 -42z"/> <path d="M6024 7776 c-3 -8 1 -27 9 -43 15 -28 15 -28 27 -1 7 15 10 34 7 42 -8 20 -36 21 -43 2z"/> <path d="M4438 7714 c-19 -19 -4 -52 42 -92 52 -45 62 -44 91 10 18 33 -21 66 -60 51 -26 -9 -31 -8 -47 14 -11 14 -22 21 -26 17z"/> <path d="M4203 7658 c-22 -11 -38 -36 -28 -46 10 -10 80 24 83 41 4 19 -20 22 -55 5z"/> <path d="M6003 7650 c-27 -11 -30 -42 -7 -61 14 -11 19 -10 35 10 37 45 22 71 -28 51z"/> <path d="M5902 7578 c-22 -22 -11 -78 14 -78 18 0 36 46 29 71 -7 22 -25 25 -43 7z"/> <path d="M4355 7541 c-8 -15 3 -31 21 -31 9 0 14 7 12 17 -4 20 -24 28 -33 14z"/> <path d="M4667 7503 c-13 -12 -7 -23 13 -23 13 0 24 -10 30 -26 6 -14 14 -23 20 -19 14 8 -22 74 -41 75 -9 0 -19 -3 -22 -7z"/> <path d="M4832 7398 c2 -13 8 -23 13 -23 6 0 11 10 13 23 2 15 -2 22 -13 22 -11 0 -15 -7 -13 -22z"/> <path d="M6075 7378 c9 -40 12 -45 26 -31 14 14 0 63 -18 63 -11 0 -13 -7 -8 -32z"/> <path d="M4750 7186 c0 -63 19 -85 40 -46 8 15 7 27 -5 50 -21 40 -35 38 -35 -4z"/> <path d="M5990 6225 c-14 -16 -5 -35 16 -35 15 0 20 35 5 44 -5 3 -14 -1 -21 -9z"/> <path d="M4282 6173 c4 -19 30 -28 55 -19 23 9 -3 36 -34 36 -18 0 -24 -5 -21 -17z"/> <path d="M6100 6160 c0 -27 27 -37 47 -17 20 19 9 37 -23 37 -17 0 -24 -5 -24 -20z"/> <path d="M4037 6114 c-24 -25 16 -73 49 -60 27 10 13 60 -16 64 -14 2 -29 0 -33 -4z"/> <path d="M6190 6065 c0 -19 5 -35 10 -35 6 0 10 16 10 35 0 19 -4 35 -10 35 -5 0 -10 -16 -10 -35z"/> <path d="M17062 12194 c-47 -33 -21 -81 58 -109 25 -9 54 -24 65 -34 11 -10 42 -30 68 -45 27 -15 51 -34 53 -41 3 -8 18 -17 34 -20 17 -4 65 -43 123 -101 52 -51 99 -94 105 -94 6 0 13 -9 17 -19 3 -10 16 -22 28 -25 27 -6 108 -84 162 -155 22 -29 68 -83 103 -119 62 -66 76 -85 106 -148 9 -18 42 -59 75 -92 33 -32 63 -72 67 -88 4 -16 16 -41 28 -56 54 -71 64 -86 87 -133 13 -27 34 -63 46 -78 18 -22 21 -33 13 -47 -11 -20 -3 -77 11 -86 5 -3 9 -20 9 -37 0 -18 7 -41 15 -51 8 -10 24 -49 36 -85 12 -36 31 -84 42 -106 11 -22 21 -53 23 -70 1 -16 3 -33 3 -36 1 -3 19 -11 42 -18 41 -12 41 -12 20 -35 -12 -12 -21 -33 -21 -47 0 -68 -76 -68 -157 0 -116 97 -156 141 -209 228 -12 19 -34 42 -49 52 -16 9 -34 32 -40 51 -6 19 -22 40 -34 46 -13 7 -36 26 -52 43 -27 30 -51 37 -83 25 -23 -9 -20 -47 5 -70 12 -10 28 -32 37 -49 8 -16 32 -52 53 -80 21 -27 42 -62 48 -78 6 -15 26 -36 45 -47 29 -18 36 -31 56 -100 13 -44 38 -103 56 -132 19 -29 34 -58 34 -64 0 -7 7 -14 15 -18 8 -3 15 -17 15 -31 0 -28 48 -174 75 -224 13 -27 15 -42 7 -79 -11 -51 -9 -245 3 -327 5 -38 2 -65 -13 -110 -11 -33 -23 -91 -26 -129 -4 -38 -13 -80 -20 -95 -8 -14 -17 -46 -21 -71 -4 -25 -16 -65 -26 -89 -10 -24 -19 -57 -19 -73 0 -17 -9 -41 -20 -55 -11 -14 -20 -38 -20 -52 0 -15 -7 -36 -15 -48 -9 -12 -20 -47 -26 -78 -14 -79 -43 -142 -69 -150 -37 -12 -75 12 -94 58 -31 74 -80 171 -98 196 -10 13 -18 32 -18 41 0 10 -10 24 -23 33 -23 15 -100 158 -112 208 -4 15 1 55 9 90 29 117 24 519 -7 634 -10 32 -17 67 -17 78 0 10 -11 39 -25 65 -14 26 -25 53 -25 62 0 21 -31 102 -46 120 -7 8 -16 29 -20 45 -4 17 -18 43 -31 58 -12 16 -23 33 -23 39 0 12 -63 119 -94 161 -135 179 -264 322 -300 331 -12 3 -37 26 -55 51 -18 25 -42 50 -54 57 -12 6 -46 31 -75 55 -79 63 -112 57 -112 -22 0 -29 7 -39 52 -72 80 -59 254 -238 294 -303 20 -32 42 -61 50 -64 8 -3 14 -18 14 -34 0 -16 9 -37 20 -47 11 -10 20 -24 20 -31 0 -7 14 -29 30 -47 17 -19 30 -39 30 -44 0 -6 13 -30 30 -54 16 -24 32 -60 36 -79 3 -19 12 -45 20 -57 20 -32 64 -171 64 -202 0 -15 4 -31 9 -37 15 -16 41 -194 45 -316 4 -116 4 -116 -34 -153 -57 -56 -76 -46 -243 125 -41 41 -108 107 -151 145 -76 69 -198 184 -266 249 -68 66 -113 76 -149 33 -16 -20 3 -61 35 -76 13 -6 29 -21 35 -34 6 -13 21 -30 33 -38 36 -22 125 -134 149 -187 16 -34 21 -67 22 -122 0 -72 -2 -77 -43 -137 -24 -34 -52 -65 -62 -68 -11 -3 -37 -21 -59 -38 -73 -58 -114 -87 -125 -87 -6 0 -36 -23 -66 -50 -30 -28 -62 -52 -71 -55 -9 -3 -21 -17 -28 -31 -9 -20 -16 -24 -34 -19 -51 16 -73 40 -68 77 2 15 31 311 31 317 0 4 -18 30 -40 60 -22 29 -40 59 -40 65 0 7 -9 21 -20 31 -11 10 -20 25 -20 33 0 9 -9 35 -21 59 -16 33 -23 75 -30 185 -5 81 -16 159 -24 181 -8 20 -15 50 -15 66 0 44 -44 91 -85 91 -46 0 -57 -18 -55 -92 4 -117 -10 -176 -63 -278 -27 -52 -56 -100 -65 -106 -10 -6 -39 -39 -66 -73 -48 -60 -158 -143 -214 -161 -15 -5 -74 -16 -131 -24 -121 -18 -129 -22 -107 -65 19 -35 36 -46 91 -57 22 -4 56 -15 75 -25 19 -11 41 -19 48 -19 54 0 186 -109 205 -169 26 -85 34 -246 27 -571 -2 -113 2 -277 8 -365 7 -88 15 -336 19 -551 6 -385 6 -391 -16 -465 -29 -93 -87 -205 -118 -227 -92 -64 -143 -115 -143 -142 0 -35 4 -38 120 -90 132 -61 234 -138 310 -237 22 -29 40 -60 40 -68 0 -9 9 -28 20 -42 11 -14 20 -37 20 -50 0 -27 50 -83 74 -83 26 0 42 26 102 166 62 144 63 146 178 227 15 10 28 31 31 51 7 36 2 47 -65 141 -25 35 -43 78 -60 144 -23 94 -23 94 -11 495 18 640 23 1123 11 1146 -20 38 23 129 81 170 27 19 71 55 97 80 26 25 61 52 77 60 17 8 51 33 78 57 89 78 183 104 232 63 23 -19 53 -130 64 -239 11 -107 23 -897 25 -1631 1 -477 1 -477 -108 -749 -34 -85 -33 -118 4 -169 17 -23 34 -42 39 -42 15 0 68 -93 82 -145 26 -99 14 -288 -28 -420 -33 -105 -97 -261 -119 -295 -44 -64 -26 -120 32 -95 33 14 135 147 180 237 15 29 37 69 49 88 47 75 143 267 150 300 8 37 82 184 120 235 12 17 37 56 56 88 18 32 55 75 80 97 78 66 86 129 22 180 -81 63 -95 132 -100 490 -3 189 1 322 13 465 13 158 15 305 13 695 -1 272 -2 516 -2 542 0 55 15 78 52 78 51 0 68 -12 101 -68 18 -31 48 -80 66 -108 19 -28 34 -54 34 -59 0 -5 8 -18 18 -29 10 -12 25 -37 32 -56 7 -19 21 -44 30 -55 31 -36 40 -63 40 -119 0 -30 5 -67 11 -83 6 -15 17 -66 25 -113 7 -47 18 -110 24 -140 11 -58 18 -209 24 -505 3 -154 -10 -411 -30 -570 -6 -48 25 -108 51 -99 46 18 76 155 130 590 8 66 21 149 30 185 8 35 15 87 15 114 0 67 33 236 71 365 34 113 50 173 79 290 19 78 46 170 76 255 18 53 21 61 53 140 11 28 25 70 31 95 6 25 17 61 24 80 24 63 36 106 36 129 0 12 5 32 12 44 6 12 15 56 19 97 4 41 11 89 14 105 9 36 52 85 76 85 18 0 109 -36 109 -43 0 -3 -7 -21 -16 -42 -26 -63 -17 -230 21 -365 8 -30 20 -82 26 -114 5 -33 12 -62 14 -66 2 -4 9 -35 14 -70 6 -35 19 -86 30 -114 11 -28 27 -80 36 -116 10 -36 37 -114 60 -175 24 -60 56 -148 70 -195 52 -162 69 -205 101 -255 17 -27 35 -69 39 -93 13 -79 -29 -92 -130 -42 -33 16 -67 30 -76 30 -9 0 -36 11 -60 24 -48 27 -142 47 -220 48 -88 0 -105 -43 -37 -92 22 -16 47 -30 54 -30 6 0 31 -16 54 -35 23 -19 51 -35 62 -35 11 0 36 -18 55 -40 20 -22 41 -40 47 -40 6 0 40 -29 76 -65 36 -35 88 -76 117 -91 29 -14 55 -33 58 -43 7 -21 100 -116 164 -166 28 -22 82 -70 120 -107 38 -38 74 -68 80 -68 5 0 12 -8 16 -19 3 -10 60 -74 126 -142 66 -68 141 -153 165 -189 49 -72 114 -155 204 -263 40 -47 66 -89 76 -122 8 -27 31 -70 49 -95 19 -25 59 -94 90 -155 74 -144 116 -219 137 -242 9 -10 19 -30 23 -44 3 -14 24 -49 46 -77 23 -32 39 -63 39 -80 0 -34 -25 -72 -49 -72 -18 0 -91 69 -91 86 0 6 -24 45 -54 86 -30 42 -61 88 -68 102 -35 67 -277 286 -316 286 -6 0 -30 15 -54 33 -112 84 -173 117 -271 147 -56 17 -106 35 -111 40 -6 6 -21 10 -36 10 -14 0 -57 9 -95 21 -60 18 -99 21 -280 22 -135 1 -221 -3 -240 -10 -17 -6 -88 -28 -160 -48 -167 -47 -194 -59 -287 -122 -43 -29 -81 -53 -85 -53 -13 0 -88 -55 -106 -77 -10 -13 -23 -23 -29 -23 -22 0 -126 -72 -188 -130 -36 -34 -78 -70 -95 -80 -16 -11 -38 -32 -49 -47 -18 -27 -115 -104 -166 -132 -14 -7 -38 -26 -55 -41 -35 -32 -122 -86 -255 -158 -19 -11 -69 -38 -110 -61 -41 -24 -109 -58 -150 -77 -41 -19 -81 -41 -90 -48 -8 -7 -49 -25 -90 -39 -41 -14 -113 -39 -160 -56 -144 -50 -166 -54 -199 -36 -38 19 -71 65 -100 135 -107 261 -288 505 -461 618 -47 30 -89 60 -95 67 -39 44 -652 355 -700 355 -19 0 -39 -8 -50 -20 -29 -32 -8 -61 71 -99 122 -59 318 -177 364 -220 19 -18 48 -40 65 -48 16 -9 42 -28 56 -42 14 -14 47 -41 73 -60 55 -40 296 -273 296 -287 0 -5 13 -25 28 -44 55 -68 94 -160 113 -270 33 -186 20 -308 -50 -478 -48 -117 -52 -157 -18 -166 59 -16 74 -8 206 106 168 147 241 190 362 217 52 11 121 30 154 41 33 12 78 25 100 31 97 23 267 96 380 163 28 16 82 45 120 64 39 19 78 43 87 52 9 10 72 51 140 90 68 40 135 80 149 90 92 64 364 242 404 264 17 10 62 35 100 57 123 69 302 133 432 154 221 36 593 3 724 -66 20 -10 67 -30 103 -43 69 -26 140 -64 192 -103 17 -13 35 -23 41 -23 5 0 32 -19 60 -42 28 -24 83 -68 123 -98 132 -101 297 -252 370 -341 30 -37 70 -79 88 -94 18 -15 48 -60 67 -100 19 -40 45 -85 57 -100 28 -36 55 -88 78 -150 10 -27 29 -77 43 -110 25 -57 47 -144 67 -265 16 -90 12 -572 -5 -665 -35 -192 -128 -507 -188 -636 -14 -30 -33 -70 -42 -89 -19 -41 -36 -70 -93 -165 -85 -139 -119 -191 -153 -236 -18 -25 -45 -64 -59 -87 -62 -104 -352 -478 -466 -602 -60 -65 -74 -88 -74 -128 0 -62 54 -63 99 -1 14 19 54 61 90 94 96 88 420 419 421 428 0 11 53 79 115 148 151 168 364 466 365 511 0 9 5 20 10 23 16 10 50 67 120 200 34 66 68 127 75 135 7 8 16 26 20 40 4 14 23 52 43 85 47 81 198 522 211 620 6 42 11 104 11 138 0 34 5 91 11 127 14 84 14 315 -1 369 -6 23 -15 84 -20 134 -12 122 -50 288 -93 412 -64 185 -125 336 -150 373 -24 34 -67 122 -143 291 -16 36 -42 82 -58 104 -16 22 -33 56 -38 76 -6 20 -34 77 -64 128 -30 51 -54 98 -54 106 0 7 -18 39 -39 69 -38 55 -53 80 -88 148 -10 19 -30 53 -43 75 -43 68 -48 77 -106 195 -72 146 -192 331 -230 353 -34 20 -9 107 31 107 28 0 123 -36 145 -55 8 -7 31 -16 50 -20 19 -4 49 -15 65 -25 17 -10 66 -30 110 -45 44 -15 91 -33 105 -40 14 -7 48 -23 75 -36 28 -12 59 -26 69 -32 11 -5 42 -17 70 -27 88 -32 180 -72 206 -90 30 -20 138 -70 154 -70 6 -1 29 -9 51 -20 22 -11 48 -19 57 -20 9 0 19 -4 22 -9 3 -5 37 -18 74 -30 37 -11 88 -34 113 -51 65 -44 139 -36 139 15 0 29 -22 44 -190 129 -63 32 -129 68 -147 80 -137 92 -226 147 -288 177 -27 13 -71 39 -97 57 -26 17 -52 32 -57 32 -4 0 -19 8 -32 19 -30 23 -290 156 -334 171 -19 6 -39 18 -45 26 -7 7 -23 14 -35 14 -13 0 -36 7 -52 15 -84 43 -262 117 -304 126 -27 6 -51 14 -54 19 -3 5 -27 12 -53 16 -26 3 -58 12 -72 20 -14 7 -42 20 -63 30 -40 18 -127 99 -127 119 0 7 -7 18 -16 25 -8 8 -22 27 -29 44 -8 17 -33 60 -56 96 -22 36 -57 94 -77 130 -19 36 -50 88 -68 115 -18 28 -50 93 -73 146 -22 52 -59 131 -81 174 -23 44 -45 95 -50 115 -10 39 -36 114 -50 145 -5 11 -21 56 -35 100 -51 162 -68 210 -78 223 -13 17 -27 98 -30 172 -1 33 -9 65 -20 80 -9 13 -17 39 -17 57 0 18 -7 52 -15 77 -21 61 -35 166 -45 321 -4 72 -13 145 -20 164 -8 21 -11 56 -7 100 8 83 26 101 101 101 56 0 251 -65 298 -100 15 -11 31 -20 36 -20 5 0 25 -12 45 -27 20 -16 59 -41 88 -58 28 -16 68 -44 88 -61 20 -17 70 -54 111 -83 122 -84 178 -127 225 -170 25 -23 49 -41 54 -41 6 0 15 -16 20 -37 6 -20 21 -48 35 -62 13 -14 31 -50 40 -79 8 -29 26 -66 39 -82 14 -16 28 -46 31 -67 4 -21 14 -57 22 -81 21 -63 18 -197 -6 -274 -11 -34 -20 -81 -20 -103 0 -57 -60 -212 -100 -260 -7 -9 -30 -15 -55 -15 -37 0 -51 7 -104 52 -34 28 -61 55 -61 59 0 16 -133 148 -161 159 -24 10 -33 10 -54 -4 -26 -17 -26 -17 -5 -43 11 -14 20 -36 20 -49 0 -13 12 -32 31 -46 62 -47 128 -128 160 -198 25 -54 246 -290 339 -362 75 -58 291 -207 329 -227 14 -7 37 -24 51 -37 14 -12 41 -30 60 -38 19 -9 53 -29 75 -46 94 -70 155 -89 176 -57 15 22 -16 68 -82 122 -157 129 -317 283 -339 325 -7 14 -19 32 -26 40 -7 8 -29 32 -48 54 -26 30 -37 53 -45 101 -16 90 -13 224 6 313 9 42 16 86 16 97 0 11 11 63 25 115 13 52 27 120 32 150 7 53 24 109 59 194 12 30 25 43 59 58 56 25 93 12 128 -44 21 -32 30 -39 52 -36 25 3 27 6 26 48 -2 75 -55 174 -194 363 -42 57 -82 118 -89 137 -8 19 -27 49 -43 65 -15 17 -28 36 -28 42 0 6 -11 24 -24 40 -13 15 -26 37 -30 48 -3 11 -18 33 -33 49 -42 43 -98 124 -132 189 -17 32 -40 70 -51 84 -11 14 -20 30 -20 34 0 5 -24 44 -53 86 -30 43 -70 108 -91 145 -40 73 -46 79 -94 98 -30 12 -35 11 -57 -10 -32 -30 -32 -57 1 -91 30 -32 63 -118 64 -166 0 -28 4 -33 24 -33 58 0 72 -21 29 -42 -28 -13 -28 -14 -28 -109 0 -67 -4 -101 -14 -112 -18 -22 -72 -22 -102 1 -13 11 -60 43 -104 72 -44 30 -107 79 -140 109 -34 31 -76 70 -95 87 -50 45 -106 115 -115 144 -4 14 -21 40 -36 58 -16 18 -29 39 -29 47 0 8 -13 29 -29 47 -15 18 -36 49 -46 68 -9 19 -30 49 -45 65 -15 17 -33 47 -40 68 -7 21 -32 61 -56 88 -24 27 -44 56 -44 63 0 8 -27 47 -61 87 -33 40 -77 104 -96 143 -56 112 -103 167 -342 406 -233 232 -290 283 -376 338 -27 17 -66 47 -85 66 -19 19 -53 46 -75 60 -72 46 -90 59 -120 87 -16 16 -47 35 -67 43 -20 9 -48 27 -62 41 -14 14 -34 25 -45 25 -11 0 -33 11 -49 25 -17 14 -37 25 -45 25 -8 0 -25 8 -38 19 -13 10 -49 28 -79 41 -30 12 -89 39 -130 60 -41 21 -93 43 -115 50 -22 7 -61 23 -87 36 -55 28 -85 30 -116 8z m403 -234 c3 -5 14 -10 24 -10 10 0 30 -9 44 -21 15 -11 44 -23 64 -26 21 -3 45 -11 53 -18 8 -7 30 -17 48 -23 18 -6 44 -24 57 -40 14 -17 36 -32 48 -36 13 -3 37 -24 52 -46 15 -22 36 -40 46 -40 25 0 82 -40 153 -105 32 -30 83 -66 112 -80 30 -14 54 -30 54 -35 0 -13 125 -140 137 -140 20 0 208 -199 243 -257 11 -18 36 -41 57 -52 45 -23 78 -57 88 -91 4 -14 19 -41 32 -62 14 -20 23 -45 22 -55 -2 -10 12 -34 30 -53 18 -19 41 -44 52 -55 10 -12 19 -28 19 -38 0 -25 -35 -21 -48 6 -11 22 -11 22 -11 0 -1 -13 9 -33 20 -44 22 -22 22 -22 38 0 16 21 51 21 51 0 0 -4 13 -23 29 -41 16 -18 32 -49 36 -68 4 -21 29 -60 61 -97 30 -33 54 -70 54 -82 0 -11 9 -25 20 -31 11 -6 20 -20 20 -31 0 -11 11 -30 24 -42 13 -12 27 -33 31 -47 4 -14 21 -40 36 -58 36 -40 38 -83 7 -97 -16 -7 -24 -20 -26 -42 -3 -32 -3 -32 49 -15 51 16 51 16 70 -7 10 -13 19 -31 19 -41 0 -10 16 -24 41 -35 50 -23 99 -67 99 -89 0 -21 -18 -20 -65 4 -22 11 -50 20 -62 20 -20 0 -23 5 -23 35 0 41 0 41 -63 18 -41 -15 -52 -15 -80 -4 -81 33 -106 35 -131 12 -15 -14 -35 -21 -64 -21 -33 0 -42 -4 -42 -17 0 -10 -14 -38 -30 -62 -28 -41 -30 -49 -24 -107 6 -53 3 -68 -14 -96 -18 -29 -26 -57 -49 -170 -7 -36 14 -38 23 -3 3 14 15 30 25 36 11 6 21 25 25 49 4 22 11 40 16 40 17 0 21 -32 10 -80 -8 -36 -8 -71 0 -135 9 -69 9 -91 -1 -107 -18 -28 14 -155 41 -164 22 -7 23 -24 3 -50 -24 -31 -19 -87 10 -114 14 -13 25 -29 25 -36 0 -6 7 -35 17 -63 15 -48 15 -52 -1 -70 -16 -18 -16 -21 9 -56 23 -34 55 -122 55 -150 0 -6 14 -21 30 -33 51 -38 40 -79 -21 -73 -12 1 -18 -11 -22 -50 -4 -29 -4 -56 -1 -61 9 -15 34 13 34 38 0 23 30 41 50 29 15 -9 12 -51 -5 -65 -8 -7 -15 -28 -15 -46 0 -29 4 -34 33 -42 35 -9 50 -50 27 -77 -20 -24 -3 -54 29 -53 40 1 49 -7 65 -61 8 -27 19 -57 25 -67 5 -11 21 -44 35 -74 13 -31 31 -62 40 -69 9 -7 16 -22 16 -32 0 -10 5 -21 12 -25 7 -5 4 -10 -10 -15 -29 -11 -28 -27 3 -39 29 -11 50 -50 58 -109 3 -24 15 -56 27 -70 11 -14 33 -45 48 -68 32 -50 49 -59 73 -37 17 15 19 14 32 -18 8 -19 49 -73 91 -119 76 -84 76 -84 54 -101 -19 -14 -21 -21 -12 -35 17 -27 39 -22 42 10 3 27 5 28 50 21 26 -3 58 -13 72 -22 13 -8 43 -21 65 -27 35 -11 41 -16 46 -49 3 -21 13 -44 21 -52 13 -14 13 -22 -2 -77 -12 -44 -15 -69 -8 -87 5 -14 8 -45 6 -70 -3 -40 -1 -45 19 -48 23 -3 23 -3 1 -32 -17 -24 -20 -35 -12 -62 14 -47 52 -52 60 -9 8 40 19 39 44 -1 23 -38 22 -64 -3 -62 -19 2 -23 -21 -6 -31 5 -4 14 -17 19 -30 5 -13 19 -25 32 -27 35 -5 77 -108 44 -108 -9 0 -16 4 -16 10 0 13 -70 24 -81 13 -15 -15 15 -80 41 -88 14 -4 28 -1 39 9 41 37 71 8 71 -69 0 -61 23 -105 55 -105 28 0 37 -12 45 -60 5 -28 10 -35 27 -33 29 3 49 -25 56 -77 4 -30 13 -50 27 -60 63 -45 61 -43 50 -76 -13 -37 1 -81 27 -91 35 -12 53 -36 53 -71 0 -25 8 -41 30 -62 17 -15 30 -38 30 -51 0 -12 7 -30 16 -40 14 -15 14 -23 3 -53 -19 -52 -3 -107 36 -125 37 -17 45 -28 45 -63 0 -18 9 -33 26 -44 25 -17 25 -17 -7 -31 -36 -15 -29 -34 13 -39 13 -1 26 -3 31 -3 4 -1 16 -10 27 -21 16 -16 20 -33 20 -93 0 -61 3 -77 20 -92 11 -10 20 -28 20 -40 0 -12 14 -34 30 -50 32 -31 39 -70 19 -106 -9 -17 -6 -28 15 -58 16 -22 26 -51 26 -72 0 -19 14 -72 30 -119 34 -96 38 -138 14 -147 -14 -5 -15 -16 -10 -66 5 -46 2 -65 -11 -87 -16 -27 -16 -31 2 -70 12 -28 19 -67 20 -114 0 -39 7 -85 15 -103 19 -44 4 -107 -27 -111 -26 -4 -83 -98 -83 -136 0 -25 -34 -54 -44 -38 -2 4 -7 69 -10 144 -6 137 -6 137 27 140 26 2 31 7 28 23 -3 18 -2 102 2 179 1 16 -3 31 -10 33 -8 3 -14 -24 -19 -87 -6 -85 -8 -91 -28 -88 -19 3 -21 11 -26 93 -4 74 -9 96 -27 119 -18 22 -21 36 -17 69 5 35 0 53 -30 110 -20 38 -36 78 -36 89 0 11 -9 33 -21 49 -20 29 -20 31 -4 49 23 25 14 59 -34 130 -31 45 -37 62 -33 92 3 30 -1 42 -20 60 -13 13 -42 60 -63 106 -21 45 -44 87 -51 93 -7 6 -16 25 -19 42 -4 18 -18 54 -32 82 -17 34 -23 59 -19 80 19 105 19 103 -9 137 -20 24 -25 38 -21 60 3 16 0 37 -6 48 -10 15 -9 23 6 39 36 39 -8 91 -78 91 -15 0 -16 6 -10 46 5 37 3 49 -14 67 -11 12 -23 32 -27 45 -4 14 -14 22 -29 22 -41 0 -51 25 -19 48 28 20 28 20 8 42 -11 12 -35 30 -54 39 -29 13 -37 24 -48 66 -17 68 -16 82 7 88 23 6 25 29 9 76 -11 32 -11 32 -80 25 -77 -7 -98 8 -64 46 20 23 13 56 -15 63 -13 3 -20 14 -20 30 0 39 -23 52 -61 33 -45 -22 -49 -21 -49 19 0 25 -6 39 -22 49 -13 9 -36 32 -52 52 -25 32 -27 39 -16 60 17 32 -1 54 -45 54 -40 0 -85 52 -85 99 0 24 -7 34 -30 46 -16 9 -30 19 -30 24 0 5 -12 11 -28 14 -23 5 -30 14 -46 64 -29 93 -42 108 -61 66 -24 -55 -75 -21 -75 50 0 42 -25 63 -42 34 -10 -20 -58 -23 -76 -5 -7 7 -12 24 -12 39 0 22 6 28 31 33 17 3 28 10 24 16 -4 6 -15 6 -32 -1 -40 -15 -73 -3 -85 31 -7 22 -16 30 -33 30 -26 0 -95 61 -95 84 0 26 -24 37 -47 21 -24 -17 -33 -11 -33 24 0 23 34 71 51 71 5 0 17 -9 28 -21 24 -26 37 -19 45 26 4 19 18 47 31 63 23 28 24 34 18 111 -5 73 -9 82 -32 97 -37 24 -46 42 -47 97 -1 37 3 50 17 58 27 14 23 32 -11 57 -35 27 -38 52 -9 91 23 31 22 64 -1 68 -25 5 -42 -12 -49 -48 -4 -20 -13 -34 -21 -34 -12 0 -16 24 -22 115 -8 158 -30 203 -81 171 -19 -12 -20 -11 -13 21 4 18 10 70 13 115 6 81 5 83 -19 92 -23 9 -24 12 -17 72 7 76 7 76 -31 84 -57 12 -77 71 -40 118 27 34 26 84 -1 106 -22 18 -36 70 -46 168 -4 49 -2 55 26 84 39 38 31 53 -25 46 -48 -5 -74 14 -91 67 -14 44 -36 54 -71 34 -23 -14 -36 -15 -66 -7 -45 12 -56 5 -86 -56 -20 -42 -78 -85 -115 -85 -23 0 -18 -41 5 -47 25 -7 26 -37 4 -95 -22 -57 -40 -76 -56 -60 -19 19 -38 92 -38 150 0 51 0 52 30 52 26 0 30 4 30 26 0 14 -4 33 -9 43 -5 9 -13 66 -17 127 -6 101 -5 112 16 152 15 28 20 52 16 70 -3 15 -8 41 -12 58 -4 20 0 42 10 62 18 34 13 86 -12 114 -21 25 -8 50 23 42 31 -8 33 7 4 47 -14 21 -29 29 -49 29 -28 0 -30 3 -36 51 -5 34 -16 62 -33 83 -15 17 -32 42 -39 56 -6 14 -18 33 -24 43 -19 26 9 71 46 75 44 5 56 -14 23 -41 -31 -26 -41 -72 -15 -72 9 0 27 16 40 35 23 34 26 35 96 38 72 3 72 3 72 37 0 39 10 47 65 55 55 7 57 31 5 55 -47 21 -66 40 -50 50 29 18 0 124 -52 188 -18 23 -23 41 -24 100 -1 72 -1 72 -32 75 -38 4 -48 38 -31 107 12 47 12 48 -19 74 -17 14 -34 40 -38 56 -3 17 -14 37 -24 45 -9 8 -31 37 -48 63 -32 48 -32 48 -12 86 10 21 16 41 13 45 -14 13 -42 5 -48 -15 -12 -36 -30 -14 -33 39 -3 46 -6 54 -33 68 -17 8 -29 22 -28 32 3 35 -2 43 -31 53 -22 8 -30 17 -30 34 0 16 -15 34 -50 59 -49 35 -50 37 -50 88 -1 46 -2 51 -14 36 -7 -10 -17 -18 -22 -18 -13 1 -59 51 -77 85 -15 27 -44 59 -140 151 -40 38 -124 94 -141 94 -7 0 -25 14 -39 30 -15 17 -32 30 -39 30 -6 0 -26 16 -45 35 -29 30 -31 35 -14 35 11 0 23 -4 26 -10z m2622 -2113 c14 -23 44 -59 66 -81 41 -38 41 -38 18 -57 -27 -22 -22 -49 9 -49 11 0 20 -7 20 -15 0 -9 11 -20 24 -24 41 -16 126 -129 126 -168 0 -5 -13 -14 -30 -20 -41 -16 -43 -56 -2 -51 19 2 28 9 30 26 2 13 10 22 21 22 25 0 41 -22 35 -47 -6 -21 32 -68 71 -88 11 -6 31 -34 45 -62 15 -29 38 -62 53 -73 47 -37 29 -74 -95 -199 -48 -48 -68 -76 -73 -102 -11 -58 -22 -68 -45 -40 -15 18 -20 38 -20 87 0 46 -6 72 -21 99 -13 21 -19 44 -16 57 4 15 -3 32 -23 55 -20 22 -30 45 -30 66 0 25 -7 36 -30 49 -26 15 -30 23 -30 62 0 36 -4 46 -20 51 -11 3 -20 10 -20 15 0 5 -16 12 -35 16 -19 3 -39 12 -46 20 -6 8 -19 14 -29 14 -23 0 -45 26 -68 81 -25 57 -33 63 -66 47 -23 -10 -31 -8 -56 10 -16 12 -34 22 -39 22 -11 0 -31 32 -31 49 0 25 38 10 48 -19 11 -30 11 -30 64 -3 90 45 108 68 108 133 0 36 7 70 20 95 11 22 20 48 20 58 0 25 16 13 47 -36z m-492 -70 c22 -17 12 -37 -20 -37 -27 0 -39 14 -31 35 7 19 27 19 51 2z m-3393 -240 c4 -7 8 -34 8 -60 0 -49 0 -49 -31 -42 -29 7 -30 5 -27 -22 2 -22 9 -29 31 -31 20 -3 31 -12 42 -38 12 -28 19 -34 35 -29 16 5 21 -1 31 -39 6 -25 17 -51 25 -57 19 -16 18 -59 -3 -74 -16 -12 -16 -15 0 -55 23 -59 12 -70 -70 -70 -47 0 -64 -3 -60 -12 2 -8 23 -13 54 -13 67 0 87 -17 80 -69 -4 -28 0 -46 12 -65 10 -14 26 -38 35 -53 9 -16 25 -28 35 -28 46 0 67 -69 24 -80 -21 -5 -33 -15 -96 -77 -69 -69 -69 -70 -57 -92 6 -12 14 -21 18 -21 13 0 8 -263 -6 -287 -6 -12 -12 -33 -12 -47 0 -15 -6 -26 -13 -26 -25 0 -38 -22 -23 -39 35 -41 70 -184 49 -205 -4 -4 -8 -138 -9 -299 -1 -184 -8 -357 -18 -467 -9 -96 -16 -222 -14 -280 2 -103 3 -106 36 -145 37 -44 37 -57 6 -137 -20 -52 -14 -70 14 -45 21 20 58 22 68 5 7 -11 -51 -67 -71 -68 -5 0 -27 -11 -47 -23 -35 -22 -37 -24 -24 -49 17 -32 12 -38 -26 -38 -35 0 -110 70 -132 124 -10 24 -22 36 -35 36 -30 0 -74 29 -98 67 -27 40 -29 59 -7 67 28 11 14 60 -18 64 -32 4 -35 17 -11 44 21 24 43 23 43 -1 0 -21 17 -31 38 -23 17 6 15 49 -3 56 -23 8 -18 26 8 26 27 0 40 39 57 163 14 111 13 153 -7 172 -16 16 -15 20 6 60 18 35 22 56 20 115 -2 66 0 74 22 91 24 19 24 19 -5 42 -29 23 -29 23 -37 268 -5 134 -7 251 -4 259 2 8 0 32 -5 54 -5 23 -5 48 0 62 8 19 5 26 -10 34 -16 9 -20 21 -20 70 0 54 2 60 30 80 34 24 38 43 12 62 -26 20 -44 80 -36 128 4 26 2 50 -6 65 -12 22 -10 29 12 63 28 42 27 92 -3 140 -10 17 -11 26 -3 40 9 14 8 22 -2 37 -21 28 -17 68 7 83 24 15 10 42 -23 42 -30 0 -73 58 -73 100 0 34 -1 35 -38 35 -44 0 -75 28 -56 52 7 7 19 28 28 46 14 29 20 32 54 29 35 -3 37 -2 37 27 0 29 -3 31 -35 31 -28 0 -37 -5 -49 -28 -23 -44 -126 -75 -126 -38 0 25 32 55 65 62 24 4 45 18 65 44 16 21 43 43 59 50 17 7 33 21 36 31 7 21 58 52 69 42 3 -4 6 -15 6 -25 0 -10 7 -18 15 -18 17 0 20 31 4 47 -5 5 -9 30 -7 54 2 36 7 45 24 47 18 3 23 -5 33 -42 7 -29 17 -46 26 -46 22 0 21 96 0 108 -9 5 -13 15 -10 24 6 14 11 13 43 -8 20 -14 40 -31 44 -37z m898 -137 c0 -5 -7 -13 -17 -18 -27 -16 -8 -40 34 -44 34 -3 40 -8 58 -46 18 -38 23 -42 47 -37 20 5 29 1 38 -14 6 -12 17 -21 24 -21 8 0 16 -7 20 -15 3 -8 17 -20 31 -27 14 -6 25 -19 25 -30 0 -20 3 -21 70 -23 25 0 58 -5 73 -9 24 -7 29 -5 34 13 3 11 9 21 13 21 17 0 40 -12 40 -21 0 -17 -69 -79 -88 -79 -28 0 -33 -10 -17 -34 8 -11 15 -31 15 -44 0 -32 33 -25 40 8 7 34 39 80 56 80 21 0 17 -34 -6 -55 -27 -24 -25 -39 9 -110 38 -80 52 -125 45 -152 -6 -21 -4 -22 26 -16 18 3 31 2 29 -3 -34 -72 -70 -96 -115 -75 -36 16 -103 -4 -108 -33 -2 -12 -11 -57 -19 -101 -30 -154 -40 -220 -39 -255 5 -214 1 -387 -9 -420 -11 -34 -10 -43 5 -59 15 -16 15 -25 5 -67 -6 -27 -17 -56 -24 -64 -15 -19 -45 -116 -45 -145 0 -17 7 -25 22 -27 28 -4 35 -34 14 -57 -35 -39 -42 -121 -11 -121 24 0 36 -37 33 -98 -3 -53 -5 -57 -28 -57 -21 0 -27 7 -34 38 -16 65 -31 37 -29 -57 0 -48 4 -90 7 -93 10 -11 20 6 21 35 0 17 5 27 15 27 12 0 15 -22 18 -130 2 -123 2 -130 -19 -146 -21 -15 -21 -19 -8 -68 10 -40 10 -59 2 -82 -13 -34 -3 -70 30 -103 14 -14 17 -25 11 -45 -4 -14 -6 -42 -5 -61 9 -107 10 -105 -34 -105 -36 0 -40 -2 -40 -25 0 -18 6 -26 21 -28 34 -5 58 -38 56 -78 -2 -24 5 -45 24 -69 29 -38 25 -55 -12 -55 -20 0 -29 -8 -42 -40 -15 -35 -21 -40 -49 -40 -33 0 -43 -15 -24 -35 4 -6 11 -22 15 -36 10 -45 -20 -45 -83 -2 -59 40 -73 67 -47 86 14 10 15 18 5 45 -11 33 -29 44 -29 18 0 -26 -21 -29 -38 -5 -39 55 -47 157 -14 192 12 13 22 30 22 38 0 9 12 26 26 40 38 36 46 54 33 83 -9 20 -8 32 10 68 13 27 21 64 21 95 0 34 6 58 19 74 10 13 21 41 25 61 4 24 13 39 26 43 32 10 24 35 -10 35 -26 0 -31 -5 -40 -40 -13 -48 -15 -49 -35 -10 -20 38 -19 45 6 56 20 9 21 16 20 164 0 85 -3 184 -5 220 -3 46 0 74 11 96 14 28 14 33 -2 57 -9 15 -23 27 -31 27 -24 0 -31 33 -32 152 -1 90 2 119 14 129 19 15 18 25 -7 58 -27 36 -18 71 17 71 22 0 24 4 26 53 4 123 -4 233 -19 267 -29 62 -35 112 -33 250 2 144 6 158 38 141 16 -9 22 -23 24 -63 2 -41 7 -54 21 -56 15 -3 17 6 16 93 -2 89 -3 97 -23 104 -11 5 -31 4 -43 -2 -28 -12 -50 4 -70 50 -27 67 -5 141 47 158 23 7 25 24 6 50 -13 18 -14 18 -41 -3 -36 -28 -52 -19 -90 52 -29 54 -55 73 -55 41 0 -22 -31 -31 -41 -12 -5 8 -29 23 -54 33 -25 9 -45 20 -45 24 0 20 64 60 95 60 44 0 57 32 26 61 -36 34 -21 55 36 50 32 -2 33 -1 33 33 0 27 6 40 25 52 28 18 33 55 10 74 -17 14 -30 73 -20 89 8 14 45 14 45 1z m1230 -499 c5 -11 10 -31 10 -44 0 -15 8 -28 24 -35 15 -6 27 -23 31 -41 4 -18 15 -33 27 -37 13 -4 18 -12 15 -22 -19 -59 -41 -109 -53 -123 -8 -8 -14 -30 -14 -48 0 -17 -9 -51 -20 -73 -11 -23 -20 -52 -20 -65 0 -27 -8 -29 -25 -6 -7 9 -17 13 -22 10 -17 -11 -25 -87 -12 -124 10 -30 9 -37 -9 -56 -11 -12 -33 -50 -48 -84 -14 -35 -31 -63 -35 -63 -5 0 -9 -14 -9 -30 0 -17 -7 -47 -16 -68 -11 -27 -14 -54 -10 -97 8 -75 -3 -120 -30 -120 -17 0 -20 11 -26 115 -4 63 -7 132 -7 153 0 20 -5 37 -11 37 -5 0 -10 9 -10 20 0 10 -15 31 -34 46 -33 27 -33 27 1 57 33 29 34 32 16 45 -10 7 -34 12 -55 10 -43 -4 -46 0 -20 32 12 14 29 22 48 22 37 0 72 22 84 54 10 26 30 30 59 12 24 -14 51 4 51 33 0 11 10 23 24 29 30 11 40 40 32 93 -9 65 9 92 61 89 43 -4 57 6 47 32 -4 11 -14 13 -34 9 -38 -7 -70 45 -50 83 9 16 11 46 6 99 -6 63 -4 75 8 75 9 0 20 -9 26 -19z m-1785 -105 c0 -26 -19 -31 -39 -11 -24 24 -19 37 12 33 19 -2 27 -9 27 -22z m1207 -198 c18 -15 29 -43 21 -52 -7 -7 -63 43 -63 56 0 12 24 10 42 -4z m466 -93 c4 -45 -8 -60 -42 -51 -33 8 -35 47 -5 77 28 28 43 20 47 -26z m762 -99 c0 -14 -5 -28 -10 -31 -13 -8 -24 20 -16 40 9 24 26 17 26 -9z m1300 -219 c0 -51 -6 -60 -31 -46 -15 7 -18 16 -13 37 15 63 44 69 44 9z m-72 -53 c14 -4 22 -14 22 -29 0 -12 6 -28 14 -35 10 -7 14 -29 14 -60 -1 -27 3 -55 9 -62 6 -7 14 -23 17 -35 7 -22 7 -22 -26 -6 -59 28 -98 73 -64 73 21 0 31 21 15 31 -8 6 -31 7 -51 4 -32 -4 -38 -2 -43 17 -4 13 -17 31 -29 40 -21 18 -21 18 1 18 12 0 23 -5 25 -12 6 -17 28 0 28 22 0 29 29 44 68 34z m-600 -588 c3 -20 0 -27 -10 -24 -7 3 -14 17 -16 32 -3 20 0 27 10 24 7 -3 14 -17 16 -32z m661 -470 c7 -8 8 -17 3 -20 -17 -10 -95 -19 -90 -10 3 5 8 17 11 27 8 21 59 23 76 3z m107 -60 c17 -13 18 -15 2 -21 -21 -8 -70 7 -76 23 -5 17 50 15 74 -2z m-266 -731 c0 -28 -24 -34 -34 -9 -8 20 1 34 20 34 8 0 14 -10 14 -25z m-2639 -25 c22 -40 10 -73 -24 -68 -25 4 -40 49 -26 85 12 31 27 26 50 -17z m3009 -65 c0 -16 -35 -21 -44 -6 -8 12 4 21 26 21 10 0 18 -7 18 -15z m-1355 -289 c46 -1 50 -3 53 -26 8 -81 13 -91 35 -88 17 2 23 11 25 40 2 20 10 42 18 48 8 7 14 19 14 27 0 16 4 16 95 -7 78 -20 83 -24 33 -28 -28 -2 -48 -9 -52 -17 -7 -18 -1 -22 56 -30 46 -7 47 -7 50 21 3 26 7 29 33 26 17 -1 37 -12 47 -22 11 -14 29 -20 55 -20 21 0 44 -4 52 -9 22 -14 5 -41 -27 -41 -15 0 -37 -7 -48 -15 -10 -8 -27 -15 -36 -15 -10 0 -22 -9 -28 -20 -11 -21 -86 -24 -112 -3 -32 26 -87 37 -121 25 -47 -17 -107 -16 -107 2 0 22 -24 26 -160 26 -110 0 -130 2 -138 17 -12 21 -42 10 -42 -17 0 -16 -6 -20 -34 -20 -37 0 -96 18 -96 29 0 14 77 70 105 77 15 4 30 17 36 32 10 25 10 25 127 17 64 -5 140 -9 167 -9z m-475 -126 c13 -9 9 -15 -20 -40 -19 -17 -43 -30 -54 -30 -20 0 -66 36 -66 52 0 24 111 37 140 18z m1051 -46 c-19 -16 -31 -35 -31 -50 0 -23 3 -25 42 -22 36 3 43 7 48 28 4 19 13 26 38 28 29 3 32 1 32 -23 0 -18 -7 -28 -24 -34 -25 -10 -36 -30 -36 -67 0 -27 -16 -31 -39 -9 -54 51 -85 68 -132 73 -36 3 -49 9 -49 20 0 27 41 62 74 62 17 0 38 5 46 10 8 5 25 10 38 10 23 0 22 -1 -7 -26z m-1241 -24 c23 -42 -13 -53 -60 -18 -40 29 -38 38 10 38 29 0 42 -5 50 -20z m-97 -79 c17 -35 14 -41 -23 -41 -32 0 -56 40 -37 59 20 20 45 12 60 -18z m1576 20 c12 -8 11 -17 -8 -55 -20 -43 -23 -46 -61 -46 -36 0 -40 2 -40 25 0 16 12 36 33 55 33 31 52 36 76 21z m-1671 -64 c5 -23 -65 -94 -79 -80 -5 5 -4 23 3 43 6 19 13 41 14 48 6 20 58 11 62 -11z m1746 -13 c10 -4 16 -18 16 -35 0 -24 4 -29 25 -29 18 0 32 -11 49 -39 14 -21 31 -41 37 -43 8 -3 10 -11 6 -22 -7 -17 -9 -18 -25 -2 -10 8 -33 19 -51 22 -24 5 -39 17 -53 41 -11 18 -31 36 -44 39 -30 8 -31 30 -1 55 26 22 22 20 41 13z m300 -320 c30 -12 12 -44 -25 -44 -5 0 -9 11 -9 25 0 26 7 29 34 19z m159 -109 c13 -19 35 -43 49 -54 30 -24 42 -75 33 -133 -9 -51 -33 -48 -50 7 -19 63 -54 115 -78 115 -25 0 -57 27 -57 50 0 14 49 47 72 49 4 1 18 -15 31 -34z m161 -240 c-4 -23 -2 -41 6 -50 18 -21 8 -27 -24 -15 -56 21 -56 100 0 100 23 0 24 -3 18 -35z m-4149 -155 c14 -16 16 -23 7 -32 -13 -13 -52 15 -52 39 0 19 24 16 45 -7z m4730 -599 c4 -17 1 -40 -6 -52 -19 -37 -40 0 -26 46 13 43 23 44 32 6z m-105 -548 c0 -8 -8 -28 -17 -46 -9 -18 -19 -45 -22 -61 -8 -35 -30 -46 -38 -18 -3 11 -11 23 -19 26 -15 6 -20 46 -5 46 5 0 15 -10 23 -22 23 -34 41 -14 35 38 -2 23 0 47 6 53 13 13 37 3 37 -16z"/> <path d="M18316 11265 c-9 -14 -23 -25 -31 -25 -17 0 -19 -18 -5 -40 7 -12 14 -12 27 -4 16 10 51 68 53 87 1 17 -29 5 -44 -18z"/> <path d="M18392 11183 c4 -32 38 -46 38 -16 0 20 -18 43 -33 43 -4 0 -7 -12 -5 -27z"/> <path d="M18465 11100 c-10 -17 4 -62 18 -57 15 5 16 59 0 64 -6 2 -14 -1 -18 -7z"/> <path d="M18337 11083 c-15 -14 -4 -40 33 -82 40 -44 40 -44 40 -4 0 48 -51 108 -73 86z"/> <path d="M18427 10909 c-9 -33 3 -49 34 -49 37 0 48 24 24 50 -24 26 -51 25 -58 -1z"/> <path d="M18557 10904 c-11 -11 -8 -52 4 -60 10 -6 28 11 29 27 0 13 -26 40 -33 33z"/> <path d="M18472 10748 c2 -13 8 -23 13 -23 6 0 11 10 13 23 2 15 -2 22 -13 22 -11 0 -15 -7 -13 -22z"/> <path d="M18591 10718 c-6 -16 -5 -27 5 -38 18 -19 37 -1 32 31 -4 31 -26 36 -37 7z"/> <path d="M18707 10702 c-19 -21 -13 -32 15 -32 13 0 18 7 18 25 0 30 -11 32 -33 7z"/> <path d="M18916 10584 c-13 -33 -7 -104 9 -104 12 0 15 13 15 60 0 57 -11 78 -24 44z"/> <path d="M19015 10380 c-8 -25 1 -40 25 -40 20 0 32 22 24 45 -9 22 -42 18 -49 -5z"/> <path d="M18432 10043 c4 -20 18 -26 37 -14 18 12 5 31 -20 31 -14 0 -19 -6 -17 -17z"/> <path d="M19045 9970 c-8 -13 39 -34 59 -27 23 9 20 24 -6 31 -33 8 -46 7 -53 -4z"/> <path d="M18706 9384 c-16 -15 -16 -18 0 -35 21 -23 47 -8 42 24 -4 27 -22 32 -42 11z"/> <path d="M18910 9354 c-6 -14 -10 -38 -10 -54 0 -71 35 -84 42 -16 10 82 -11 126 -32 70z"/> <path d="M18481 9299 c-25 -10 -25 -10 8 -30 36 -22 56 -15 49 17 -4 22 -24 27 -57 13z"/> <path d="M18954 9055 c-8 -21 3 -48 19 -43 19 7 22 58 2 58 -8 0 -18 -7 -21 -15z"/> <path d="M19312 7929 c-6 -15 -5 -46 3 -84 10 -53 14 -60 36 -60 32 0 38 33 9 55 -16 12 -23 29 -25 59 -3 51 -11 62 -23 30z"/> <path d="M19342 7573 c4 -22 43 -25 43 -3 0 8 -11 16 -23 18 -19 3 -23 0 -20 -15z"/> <path d="M19496 7413 c12 -69 44 -70 44 -2 0 35 -2 39 -25 39 -24 0 -26 -2 -19 -37z"/> <path d="M19344 7365 c-9 -21 3 -45 21 -45 16 0 19 17 9 44 -8 20 -23 21 -30 1z"/> <path d="M19890 6746 c0 -22 29 -41 42 -28 8 8 8 15 -2 27 -16 19 -40 20 -40 1z"/> <path d="M20340 6056 c0 -24 25 -36 60 -29 33 6 33 6 11 25 -27 21 -71 24 -71 4z"/> <path d="M20434 5895 c-10 -26 4 -49 21 -35 8 7 15 18 15 25 0 19 -30 27 -36 10z"/> <path d="M20515 5850 c-7 -11 -1 -23 24 -52 20 -23 41 -6 41 33 0 25 -4 29 -29 29 -17 0 -33 -4 -36 -10z"/> <path d="M20661 5581 c-16 -10 -6 -31 14 -31 8 0 21 -16 30 -36 18 -44 39 -40 43 8 5 55 -43 87 -87 59z"/> <path d="M20580 5510 c-9 -18 -8 -25 6 -41 26 -29 36 -23 32 18 -4 43 -22 53 -38 23z"/> <path d="M20640 5391 c0 -34 12 -45 40 -36 27 9 25 29 -5 49 -33 22 -35 21 -35 -13z"/> <path d="M20860 5121 c0 -10 7 -21 15 -25 11 -4 15 1 15 19 0 16 -6 25 -15 25 -8 0 -15 -9 -15 -19z"/> <path d="M20991 4257 c-11 -15 -6 -47 9 -47 4 0 13 7 20 16 11 12 11 18 -2 30 -13 13 -16 13 -27 1z"/> <path d="M21102 3923 c2 -10 10 -18 18 -18 22 0 18 29 -3 33 -14 3 -18 -1 -15 -15z"/> <path d="M20033 9734 c-12 -31 39 -45 73 -20 18 14 18 15 -9 25 -39 15 -57 14 -64 -5z"/> <path d="M20067 9523 c-13 -12 -7 -83 7 -89 14 -5 84 37 98 59 21 33 -1 49 -29 22 -14 -14 -18 -14 -39 0 -26 17 -28 17 -37 8z"/> <path d="M20312 9238 c4 -27 36 -35 68 -18 30 16 8 40 -37 40 -30 0 -34 -3 -31 -22z"/> <path d="M20470 9165 c-7 -8 -18 -15 -26 -15 -7 0 -25 -5 -41 -11 -28 -11 -28 -11 -3 -21 34 -13 64 -3 80 27 15 29 9 43 -10 20z"/> <path d="M16222 9180 c-28 -12 -49 -60 -30 -71 18 -12 44 -2 73 27 45 45 21 69 -43 44z"/> <path d="M15940 9046 c0 -8 4 -18 10 -21 13 -8 52 14 45 26 -10 15 -55 11 -55 -5z"/> <path d="M16073 8793 c-26 -10 -14 -34 15 -31 16 2 27 9 27 18 0 15 -21 22 -42 13z"/> <path d="M16300 8749 c-9 -15 -8 -24 1 -35 19 -23 29 -16 29 21 0 39 -14 46 -30 14z"/> <path d="M16122 7738 c-22 -22 -11 -78 14 -78 10 0 14 12 14 39 0 43 -10 57 -28 39z"/> <path d="M16112 6618 c-7 -7 -12 -31 -12 -55 0 -36 3 -43 19 -43 26 0 37 50 19 85 -11 20 -16 23 -26 13z"/> <path d="M16150 6484 c0 -23 20 -55 30 -49 9 6 -10 65 -22 65 -4 0 -8 -7 -8 -16z"/> <path d="M17190 9213 c0 -4 19 -24 42 -44 41 -35 42 -38 30 -64 -10 -23 -11 -30 0 -36 16 -10 24 -4 41 30 14 29 14 31 -30 75 -39 40 -83 61 -83 39z"/> <path d="M17430 8846 c0 -17 5 -26 16 -26 10 0 14 7 12 22 -5 32 -28 35 -28 4z"/> <path d="M17562 8768 c-17 -17 -15 -58 2 -58 8 0 17 9 21 19 3 11 13 22 21 25 8 3 12 10 9 16 -8 14 -38 13 -53 -2z"/> <path d="M17245 7766 c-46 -46 -20 -95 32 -61 19 13 23 23 21 47 -4 41 -21 46 -53 14z"/> <path d="M17248 7573 c-19 -5 -23 -29 -8 -53 11 -18 50 13 50 42 0 18 -8 20 -42 11z"/> <path d="M17267 7463 c-13 -12 -7 -53 7 -53 14 0 26 21 26 46 0 14 -21 19 -33 7z"/> <path d="M17274 6527 c-9 -24 4 -69 19 -64 14 5 12 56 -2 70 -7 7 -12 5 -17 -6z"/> <path d="M17120 6205 c0 -23 2 -24 20 -15 11 6 20 17 20 25 0 8 -9 15 -20 15 -15 0 -20 -7 -20 -25z"/> <path d="M17317 6173 c-4 -3 -7 -15 -7 -25 0 -11 -7 -18 -20 -18 -11 0 -20 -7 -20 -15 0 -8 7 -15 15 -15 9 0 18 7 21 15 4 8 11 15 18 15 6 0 22 8 35 17 23 16 23 17 5 24 -25 10 -39 11 -47 2z"/> <path d="M18104 8205 c-9 -23 5 -65 22 -65 21 0 29 27 16 56 -13 27 -30 31 -38 9z"/> <path d="M18878 5895 c-3 -3 -3 -17 0 -30 6 -36 32 -32 32 5 0 27 -17 40 -32 25z"/> <path d="M19077 5853 c-13 -12 -7 -23 12 -23 26 0 51 10 51 21 0 10 -53 12 -63 2z"/> <path d="M12536 11185 c-68 -68 -128 -135 -131 -147 -4 -13 -21 -36 -37 -53 -88 -90 -167 -204 -187 -271 -7 -21 -16 -48 -21 -59 -15 -39 -58 -181 -70 -235 -7 -30 -23 -79 -36 -109 -13 -29 -24 -59 -24 -65 0 -7 -9 -28 -19 -49 -10 -20 -22 -49 -26 -64 -9 -38 -94 -142 -122 -149 -13 -4 -30 -15 -38 -27 -14 -19 -15 -19 -51 -2 -60 28 -234 7 -234 -28 0 -12 62 -89 111 -137 81 -80 120 -214 159 -545 10 -81 9 -153 -3 -375 -13 -220 -14 -310 -5 -450 12 -190 12 -294 4 -585 -4 -117 -2 -207 4 -235 20 -87 16 -220 -7 -266 -26 -50 -31 -53 -118 -99 -74 -38 -118 -78 -113 -102 2 -8 28 -24 58 -37 118 -49 152 -70 208 -131 64 -70 84 -122 123 -312 41 -203 34 -593 -13 -686 -11 -21 -18 -53 -16 -70 3 -30 6 -32 43 -35 67 -5 94 36 95 144 0 23 7 61 15 84 8 24 20 83 25 131 6 49 14 99 19 111 23 58 50 158 56 208 3 30 19 80 34 110 16 30 34 72 40 92 7 20 30 56 52 80 21 24 41 50 44 58 3 8 35 35 71 60 36 24 70 53 75 63 15 27 1 56 -29 63 -41 10 -114 82 -139 137 -23 49 -23 58 -24 426 0 207 -4 502 -8 656 -8 280 -8 280 21 333 16 28 33 52 38 52 4 0 40 38 80 85 39 47 96 111 126 141 30 31 54 62 54 69 0 14 136 145 152 145 5 0 24 11 42 25 40 30 65 32 99 5 57 -45 56 -29 62 -698 10 -1215 10 -1278 -12 -1357 -11 -39 -30 -88 -42 -110 -11 -22 -21 -43 -21 -47 0 -4 -18 -34 -40 -65 -22 -32 -40 -65 -40 -73 0 -8 -9 -26 -20 -40 -11 -14 -20 -30 -20 -37 0 -6 -20 -35 -44 -63 -25 -29 -52 -69 -62 -89 -9 -20 -27 -47 -39 -61 -39 -43 -86 -139 -83 -168 5 -42 58 -44 89 -2 13 17 36 45 51 63 14 18 44 56 65 84 49 65 170 193 183 193 5 0 67 57 136 126 79 79 141 133 168 144 23 11 60 32 81 48 22 16 52 32 67 35 35 9 72 62 71 101 -3 221 0 1004 6 1371 8 470 8 470 35 531 24 54 36 67 91 102 55 36 63 45 67 77 5 41 2 47 -32 65 -166 88 -301 214 -340 316 -11 31 -29 68 -39 81 -31 39 -37 119 -12 154 24 33 28 87 6 95 -24 10 -81 -15 -96 -42 -7 -14 -27 -35 -44 -47 -37 -25 -167 -157 -203 -206 -21 -29 -101 -122 -130 -153 -4 -4 -44 -42 -89 -84 -46 -43 -85 -85 -88 -93 -3 -9 -24 -27 -46 -41 -54 -33 -105 -85 -125 -130 -21 -44 -30 -50 -77 -50 -49 0 -54 14 -55 165 0 66 -5 135 -11 154 -12 39 -7 264 8 386 5 44 10 114 10 155 1 49 6 83 15 96 10 14 19 70 25 160 16 204 99 524 180 694 17 36 31 70 31 75 0 6 9 18 20 28 11 9 20 25 20 35 0 10 11 28 25 40 14 12 25 32 25 45 0 17 10 27 38 40 22 10 48 33 65 59 46 72 33 108 -40 108 -41 0 -46 -4 -167 -125z m-31 -175 c3 -5 -3 -15 -15 -22 -11 -7 -20 -19 -20 -26 0 -7 -11 -34 -25 -60 -14 -26 -25 -52 -25 -59 0 -6 -9 -27 -19 -45 -10 -18 -22 -49 -26 -68 -4 -19 -18 -57 -31 -85 -27 -59 -47 -157 -48 -238 -1 -38 -6 -61 -15 -66 -19 -12 -53 -177 -46 -222 8 -45 -15 -105 -44 -114 -21 -6 -30 -25 -12 -25 8 0 6 -56 -5 -127 -4 -26 -10 -32 -32 -35 -35 -4 -43 -41 -12 -60 38 -23 55 -73 40 -118 -9 -26 -10 -53 -5 -82 5 -24 10 -85 11 -136 2 -62 8 -105 19 -128 18 -39 14 -64 -11 -64 -11 0 -15 -6 -11 -17 3 -10 11 -40 18 -68 8 -27 19 -54 26 -58 7 -4 19 -22 27 -40 7 -18 27 -46 45 -63 32 -31 32 -31 81 -7 27 13 54 32 60 43 14 26 32 25 48 -1 17 -28 7 -56 -28 -74 -16 -8 -35 -25 -41 -38 -7 -12 -24 -36 -40 -54 -15 -17 -30 -46 -34 -63 -4 -19 -15 -34 -29 -40 -31 -11 -96 -86 -96 -110 0 -25 -9 -25 -26 -2 -13 16 -15 16 -29 -2 -19 -26 -19 -56 1 -85 12 -17 15 -35 10 -71 -4 -31 -3 -51 5 -55 13 -8 3 -144 -12 -159 -12 -13 -12 -99 1 -112 10 -10 13 -75 12 -284 0 -80 0 -161 0 -180 0 -19 -2 -104 -5 -187 -5 -130 -3 -153 9 -153 23 0 28 -29 9 -50 -20 -22 -17 -152 4 -173 6 -6 11 -19 11 -28 0 -21 16 -33 30 -24 7 4 5 13 -4 26 -14 21 -3 99 14 99 10 0 20 -26 20 -49 0 -10 9 -28 20 -41 11 -13 20 -25 20 -28 0 -10 -44 -78 -62 -96 -12 -11 -17 -24 -12 -35 18 -42 16 -68 -6 -74 -17 -4 -24 0 -32 24 -12 35 -30 37 -51 6 -14 -21 -15 -21 -34 -4 -31 27 -35 21 -31 -45 4 -75 -17 -87 -39 -23 -25 75 -86 184 -123 222 -69 70 -78 142 -25 193 55 53 69 92 55 151 -10 43 -10 53 5 75 12 19 15 38 12 68 -3 22 -8 127 -12 231 -5 182 -16 264 -38 293 -8 10 -7 16 4 23 22 14 26 12 55 -26 33 -44 40 -44 54 0 14 44 7 69 -30 95 -37 26 -52 73 -55 171 -1 61 -6 84 -21 101 -14 15 -16 22 -6 25 16 6 72 62 72 72 0 5 -16 19 -34 32 -42 28 -56 56 -56 109 0 53 19 142 35 160 14 16 13 135 0 216 -5 29 -2 58 10 94 21 63 15 115 -22 177 -29 49 -24 61 27 72 40 8 42 25 4 31 -36 6 -63 56 -68 126 -2 27 -7 62 -11 78 -5 19 -4 31 5 36 18 11 -3 44 -45 69 -38 22 -44 41 -20 61 8 7 15 21 15 32 0 32 18 55 47 61 15 4 64 36 108 71 45 37 90 66 103 66 26 0 40 26 23 43 -17 17 -13 51 9 80 12 15 20 40 20 65 0 42 34 132 50 132 6 0 10 -9 10 -19 0 -29 11 -52 21 -45 10 6 1 54 -12 68 -5 6 -9 22 -9 37 0 15 -4 31 -10 34 -18 11 -11 53 15 83 31 37 69 137 61 164 -3 14 4 32 20 52 61 75 85 111 94 146 6 24 19 41 35 48 17 8 25 20 25 38 0 17 6 28 19 31 11 3 21 13 24 24 5 20 22 25 32 9z m600 -1330 c0 -8 -8 -16 -17 -18 -13 -2 -18 3 -18 18 0 15 5 20 18 18 9 -2 17 -10 17 -18z m75 -70 c0 -51 2 -58 26 -68 16 -8 34 -32 50 -66 13 -30 31 -59 39 -66 11 -9 12 -17 4 -32 -15 -28 -4 -48 26 -48 15 0 36 -11 50 -25 18 -20 29 -24 49 -19 28 7 37 -10 11 -20 -8 -3 -15 -12 -15 -21 0 -17 25 -21 35 -5 7 11 48 14 58 4 4 -4 -6 -23 -22 -43 -21 -26 -28 -44 -24 -62 4 -22 0 -28 -26 -37 -27 -9 -31 -15 -25 -35 4 -19 0 -29 -18 -41 -21 -15 -23 -24 -23 -92 0 -76 0 -76 -42 -113 -51 -44 -53 -55 -12 -76 30 -16 30 -16 27 -161 -3 -93 -9 -149 -16 -156 -15 -15 -16 -45 -1 -54 6 -3 8 -17 5 -29 -3 -13 -1 -69 5 -125 9 -91 8 -104 -7 -121 -10 -11 -14 -25 -9 -36 27 -66 15 -161 -29 -228 -21 -33 -20 -40 9 -53 25 -11 25 -11 21 -162 -2 -83 -6 -154 -10 -157 -10 -10 -7 -43 4 -43 16 0 11 -30 -12 -71 -18 -33 -20 -44 -11 -73 9 -30 8 -37 -8 -52 -28 -25 -33 -53 -14 -74 22 -24 12 -40 -25 -40 -48 0 -60 -9 -60 -46 0 -40 -20 -45 -42 -12 -17 25 -35 18 -49 -19 -11 -29 -33 -26 -37 5 -4 28 39 72 71 72 41 0 47 19 50 164 3 145 -1 160 -40 145 -28 -11 -39 6 -29 48 4 14 2 77 -5 139 -11 113 -11 114 12 133 23 18 23 18 -4 36 -35 23 -34 44 4 78 34 29 33 49 -2 100 -22 30 -27 83 -34 362 -4 155 3 346 15 365 4 6 25 17 46 25 42 14 60 45 25 45 -11 0 -23 -4 -26 -10 -20 -33 -75 25 -75 80 0 34 4 42 25 50 37 14 35 62 -5 90 -37 27 -49 79 -26 115 22 33 30 32 55 -10 13 -22 28 -35 41 -35 47 0 30 67 -21 77 -20 4 -29 11 -29 25 0 23 -17 58 -29 58 -5 0 -14 -14 -20 -31 -9 -26 -13 -29 -31 -19 -12 6 -28 26 -37 45 -10 21 -30 39 -53 50 -26 12 -39 26 -46 48 -6 22 -20 38 -44 49 -40 20 -45 39 -13 53 12 5 26 20 32 32 9 19 16 22 38 16 59 -15 68 -11 71 30 2 26 -1 39 -12 43 -23 9 -19 21 11 36 15 7 30 25 34 41 14 54 49 77 49 33 0 -75 23 -71 61 9 38 81 59 76 59 -15z m-349 -341 c15 -37 -4 -59 -53 -59 -24 0 -28 4 -28 29 0 20 8 35 22 45 32 23 44 20 59 -15z m-126 -99 c0 -18 -52 -27 -67 -12 -17 17 2 33 35 30 20 -2 32 -8 32 -18z m432 -1838 c8 -5 11 -36 10 -95 -2 -80 -3 -88 -21 -85 -16 3 -19 14 -23 83 -5 101 1 118 34 97z m-957 -494 c0 -40 -15 -52 -28 -23 -13 29 -8 45 14 45 8 0 14 -10 14 -22z"/> <path d="M12225 10430 c-17 -34 -12 -70 10 -70 23 0 48 56 35 80 -15 28 -27 25 -45 -10z"/> <path d="M12096 9084 c-9 -23 -8 -24 14 -24 13 0 20 7 20 20 0 24 -25 27 -34 4z"/> <path d="M12095 8929 c-11 -33 8 -44 47 -28 18 7 40 13 48 11 9 -2 6 5 -9 18 -31 27 -78 27 -86 -1z"/> <path d="M11954 7191 c-4 -22 -13 -42 -20 -45 -18 -7 -18 -36 0 -36 7 0 21 11 30 25 9 14 25 25 36 25 26 0 25 13 -4 44 -31 34 -35 33 -42 -13z"/> <path d="M12000 7005 c0 -15 6 -25 14 -25 22 0 30 19 16 35 -18 22 -30 18 -30 -10z"/> <path d="M13145 9520 c-11 -17 6 -90 20 -90 7 0 19 -10 27 -22 9 -14 20 -19 31 -15 15 6 15 8 -1 37 -9 16 -20 30 -24 30 -3 0 -12 16 -18 35 -12 35 -23 44 -35 25z"/> <path d="M13090 9410 c0 -17 37 -31 43 -16 3 8 3 17 0 20 -10 10 -43 7 -43 -4z"/> <path d="M13236 7697 c-8 -73 -8 -102 5 -134 8 -22 12 -24 19 -13 6 8 10 24 10 34 0 11 7 27 16 37 15 17 15 21 -5 52 -11 19 -21 41 -21 50 0 40 -18 21 -24 -26z"/> <path d="M10124 10886 c-19 -14 -26 -66 -37 -276 -8 -130 -43 -272 -94 -380 -28 -58 -53 -117 -57 -131 -3 -15 -29 -62 -58 -105 -29 -44 -59 -91 -66 -105 -14 -27 -155 -208 -194 -249 -13 -14 -32 -37 -41 -52 -9 -15 -44 -50 -78 -78 -34 -28 -79 -73 -100 -101 -22 -27 -74 -77 -115 -111 -80 -66 -184 -189 -184 -219 0 -34 67 -40 111 -8 16 11 36 34 44 50 14 26 21 29 63 29 26 0 75 9 107 21 42 15 74 19 106 16 35 -4 53 -1 75 14 17 11 46 19 72 19 38 0 45 -4 63 -35 20 -34 21 -49 24 -662 2 -627 7 -738 40 -858 8 -30 13 -97 13 -169 -1 -156 -24 -233 -94 -313 -63 -74 -96 -122 -91 -137 2 -6 33 -12 78 -13 161 -5 206 -10 264 -27 134 -40 235 -127 301 -261 20 -40 49 -86 65 -101 26 -24 31 -26 58 -14 34 14 41 27 52 95 13 88 26 124 58 160 17 20 31 41 32 48 0 7 21 30 46 52 25 22 71 67 102 99 31 32 88 84 126 114 113 90 409 390 439 447 15 28 43 77 64 110 39 64 101 195 109 232 8 35 -23 75 -54 71 -21 -2 -36 -20 -76 -88 -27 -47 -64 -107 -83 -135 -18 -27 -40 -66 -49 -86 -10 -20 -30 -44 -46 -53 -16 -10 -39 -31 -51 -47 -12 -16 -25 -29 -30 -29 -10 0 -106 -78 -146 -117 -30 -30 -118 -92 -167 -116 -16 -8 -47 -29 -69 -46 -21 -17 -48 -31 -59 -31 -11 0 -34 -4 -51 -9 -123 -38 -132 -39 -182 -28 -63 15 -70 20 -95 68 -19 38 -20 62 -24 497 -8 770 -13 1103 -19 1197 -9 128 -4 133 116 131 59 -2 102 -7 118 -17 14 -7 32 -14 40 -14 21 -1 139 -63 173 -91 16 -13 35 -24 43 -24 7 0 20 -13 28 -29 8 -15 26 -36 40 -45 14 -9 29 -29 32 -44 4 -15 15 -38 26 -51 10 -13 18 -35 18 -50 0 -14 7 -39 15 -54 8 -16 21 -58 29 -95 39 -177 86 -292 120 -292 45 0 50 20 52 202 1 107 6 174 13 181 6 6 11 37 11 68 0 32 4 69 10 84 5 14 14 54 20 90 6 35 17 76 24 92 8 15 20 42 26 60 7 18 32 51 57 75 107 103 146 161 140 207 -6 44 -38 136 -66 188 -11 21 -32 77 -46 125 -14 49 -36 100 -49 115 -13 16 -28 45 -35 65 -7 20 -19 42 -27 48 -7 7 -14 18 -14 25 0 21 -83 95 -107 95 -46 0 -51 -18 -46 -177 3 -121 1 -153 -11 -173 -9 -14 -22 -38 -30 -55 -14 -30 -96 -105 -114 -105 -6 0 -35 -13 -65 -29 -73 -39 -176 -55 -309 -49 -63 3 -110 2 -116 -4 -15 -15 -45 -1 -87 42 -38 39 -38 39 -37 372 0 183 4 399 9 479 5 87 4 167 -1 195 -5 27 -9 98 -8 158 2 107 2 110 -25 138 -30 32 -41 34 -69 14z m36 -563 c-22 -42 -25 -44 -34 -24 -6 15 -5 26 6 39 8 9 18 26 22 36 5 15 9 17 19 7 9 -9 6 -22 -13 -58z m-43 -129 c-4 -20 -18 -54 -32 -75 -30 -43 -30 -80 0 -93 19 -8 20 -18 20 -175 0 -144 -2 -171 -18 -195 -30 -45 -20 -70 31 -74 42 -3 53 -17 31 -39 -31 -31 63 -115 124 -110 28 2 32 -1 32 -23 0 -19 -6 -26 -25 -28 -40 -6 -46 -19 -20 -47 23 -25 23 -25 62 18 40 42 40 42 60 14 11 -15 24 -25 29 -21 15 9 10 44 -6 44 -8 0 -15 5 -15 10 0 6 6 10 14 10 8 0 18 -4 21 -10 3 -5 20 -10 38 -10 22 0 38 -8 52 -26 21 -27 21 -27 77 9 40 25 73 37 114 43 41 5 69 15 92 33 17 14 47 38 65 52 17 14 55 32 84 38 61 15 70 24 75 71 3 39 38 59 38 22 0 -24 17 -39 50 -44 23 -3 25 0 25 32 0 32 -3 36 -37 44 -41 10 -50 35 -28 77 16 29 37 23 66 -21 15 -22 33 -40 41 -40 25 0 13 -83 -14 -95 -17 -7 -23 -18 -23 -41 0 -48 37 -54 54 -10 14 38 27 -2 30 -88 3 -104 -7 -127 -48 -108 -29 13 -34 37 -11 46 16 6 21 36 6 36 -6 0 -16 -8 -23 -19 -7 -10 -23 -21 -36 -25 -28 -9 -48 -44 -33 -59 6 -6 30 -11 53 -11 53 -1 62 -29 11 -34 -45 -5 -60 -26 -31 -46 25 -18 19 -28 -30 -44 -23 -8 -40 -8 -52 -2 -26 14 -63 12 -84 -3 -16 -12 -16 -14 2 -31 17 -15 26 -16 58 -7 51 14 60 2 35 -46 -14 -26 -21 -56 -20 -89 1 -55 -17 -154 -31 -168 -15 -15 -39 12 -54 63 -10 34 -19 47 -37 51 -17 4 -25 14 -27 32 -2 14 -12 34 -23 44 -10 9 -19 23 -19 31 0 8 -13 19 -29 24 -16 6 -36 21 -45 33 -15 24 -100 70 -151 82 -16 4 -37 12 -45 19 -8 7 -30 16 -48 20 -27 6 -32 11 -30 32 3 22 -3 28 -36 39 -48 17 -60 10 -53 -32 6 -34 6 -34 -81 -32 -87 3 -87 3 -90 31 -5 41 -25 28 -38 -24 -16 -61 -48 -132 -67 -147 -12 -10 -14 -20 -7 -37 5 -13 6 -26 2 -30 -4 -4 -7 -64 -7 -135 0 -119 -2 -130 -22 -152 -13 -14 -23 -37 -23 -52 0 -26 3 -28 30 -24 30 5 30 5 30 -94 0 -78 -3 -98 -14 -98 -21 0 -48 -29 -39 -43 21 -34 35 -184 39 -417 5 -275 5 -285 -26 -320 -27 -32 -22 -52 19 -71 42 -20 54 -48 36 -80 -8 -13 -18 -34 -24 -45 -6 -14 -26 -25 -55 -33 -68 -17 -56 -41 19 -41 44 0 85 -16 85 -33 0 -8 -9 -26 -21 -41 -26 -33 -18 -56 18 -56 15 0 33 -4 39 -8 18 -12 23 -51 8 -66 -17 -18 -18 -26 -1 -26 6 0 26 -8 42 -17 19 -10 56 -17 99 -18 53 -1 70 -5 78 -18 5 -9 15 -17 23 -17 8 0 19 -8 24 -18 8 -15 2 -27 -34 -62 -30 -29 -42 -47 -35 -54 12 -12 13 -43 1 -50 -13 -8 -123 23 -141 39 -9 8 -26 15 -37 15 -11 0 -28 11 -37 25 -10 14 -26 25 -39 25 -24 0 -67 26 -67 40 0 22 70 22 105 1 49 -28 54 -27 41 13 -10 35 -10 35 -95 42 -57 4 -90 3 -103 -5 -24 -15 -38 -14 -38 4 0 9 -24 26 -55 40 -55 26 -55 26 -55 74 0 47 1 49 41 66 63 29 74 76 23 95 -34 13 -30 38 9 48 46 12 50 72 9 162 -24 53 -28 69 -20 92 8 22 7 33 -4 46 -24 27 -30 81 -12 99 16 16 15 35 -1 34 -6 0 -11 -10 -13 -21 -5 -33 -27 -17 -30 22 -2 22 3 39 12 48 17 13 22 61 9 74 -5 4 -8 57 -8 117 -1 99 0 107 15 94 20 -18 40 -2 40 32 0 27 -24 40 -44 24 -24 -20 -27 14 -11 164 14 133 14 150 -1 211 -16 62 -16 68 -1 79 19 14 22 41 6 51 -7 4 -9 28 -4 73 17 154 15 181 -10 191 -12 5 -32 25 -45 44 -19 32 -20 40 -9 73 11 35 10 38 -17 60 -39 32 -99 63 -122 63 -10 0 -27 7 -38 15 -26 20 -30 19 -58 -12 -21 -22 -27 -24 -40 -14 -9 8 -16 22 -16 32 0 9 -7 25 -16 33 -9 10 -13 24 -9 37 9 26 31 19 28 -10 -3 -25 19 -28 37 -6 7 8 21 15 31 15 25 0 31 14 14 36 -21 28 -19 64 3 64 34 0 132 129 132 174 0 9 11 21 25 26 14 5 25 17 25 25 0 9 16 32 35 52 19 20 35 46 35 59 0 41 11 54 45 54 19 0 37 4 40 10 14 22 32 112 27 136 -3 15 2 32 12 42 9 10 21 34 28 53 12 35 45 88 63 101 21 16 27 7 22 -28z m-652 -904 c0 -8 -8 -16 -17 -18 -13 -2 -18 3 -18 18 0 15 5 20 18 18 9 -2 17 -10 17 -18z"/> <path d="M9954 9699 c-3 -5 -2 -18 1 -30 9 -27 60 -23 60 5 0 21 -50 42 -61 25z"/> <path d="M10944 9502 c-31 -20 -94 -106 -86 -114 14 -14 52 0 52 18 0 8 13 17 30 20 42 9 56 28 42 59 -12 26 -20 30 -38 17z"/> <path d="M9829 9353 c-6 -16 -7 -34 -2 -42 16 -26 28 -16 31 27 4 48 -13 57 -29 15z"/> <path d="M10555 9299 c-10 -14 -3 -19 42 -30 91 -21 117 5 27 28 -60 15 -61 16 -69 2z"/> <path d="M19427 10575 c-22 -21 -22 -39 0 -61 16 -16 18 -15 25 8 5 14 5 35 0 47 -8 22 -9 22 -25 6z"/> <path d="M8744 10108 c-26 -12 -44 -48 -44 -88 0 -16 -18 -64 -40 -107 -22 -43 -40 -83 -40 -90 0 -18 -174 -217 -211 -242 -19 -12 -58 -37 -87 -55 -29 -19 -62 -46 -73 -61 -12 -14 -38 -37 -58 -51 -148 -100 -172 -120 -279 -224 -53 -52 -124 -119 -157 -149 -33 -29 -72 -64 -86 -78 -26 -24 -26 -24 -71 -4 -25 11 -50 25 -54 33 -22 34 -33 86 -28 129 4 29 0 67 -11 107 -17 60 -17 62 4 97 20 34 20 37 4 70 -15 32 -15 36 2 69 17 32 18 39 4 113 -14 71 -18 79 -43 88 -24 8 -30 6 -46 -15 -20 -27 -63 -78 -107 -125 -15 -16 -39 -46 -53 -67 -31 -45 -118 -150 -165 -200 -19 -20 -35 -41 -35 -47 0 -5 -10 -16 -23 -23 -57 -32 -97 -61 -97 -69 0 -5 -15 -24 -33 -42 -81 -82 -70 -212 13 -147 40 31 131 21 182 -19 41 -34 44 -113 35 -1126 -7 -781 -11 -944 -23 -962 -8 -12 -14 -34 -14 -48 0 -36 -38 -122 -77 -173 -22 -29 -33 -55 -33 -76 0 -35 17 -49 150 -124 30 -17 70 -46 87 -64 30 -31 103 -179 103 -210 0 -18 62 -138 72 -138 30 0 68 92 68 165 0 13 4 26 9 29 5 4 12 23 16 44 11 67 104 214 200 318 130 139 129 133 31 195 -84 52 -118 124 -111 235 3 38 7 393 10 789 5 771 5 770 56 845 60 87 141 191 183 235 25 26 46 53 46 60 0 7 14 18 30 24 22 7 32 18 36 41 5 20 16 36 35 46 16 8 33 23 39 33 5 11 32 27 60 36 71 24 84 38 65 75 -12 24 -22 29 -57 32 -23 2 -43 9 -46 16 -5 17 78 16 103 -2 11 -7 39 -16 63 -20 39 -6 43 -4 52 20 16 41 13 44 -45 44 -52 0 -55 2 -55 24 0 38 46 69 91 62 43 -7 60 15 34 44 -17 19 -11 50 10 50 7 0 24 -9 38 -20 43 -34 97 -19 64 18 -24 27 -5 55 78 121 84 67 84 67 125 46 34 -17 37 -33 15 -75 -14 -27 -14 -32 1 -54 9 -15 13 -33 9 -45 -5 -16 1 -24 32 -38 23 -11 39 -26 41 -39 3 -22 102 -74 140 -74 10 0 27 -7 38 -15 19 -14 18 -15 -6 -35 -14 -11 -29 -20 -35 -20 -24 -1 -38 -21 -49 -71 -14 -60 -39 -78 -50 -35 -7 30 -52 37 -62 11 -9 -21 14 -45 42 -45 20 0 24 -5 24 -30 0 -17 -6 -43 -14 -58 -8 -15 -17 -46 -21 -67 -4 -22 -16 -54 -26 -71 -11 -17 -19 -49 -19 -71 0 -21 -4 -43 -9 -48 -16 -18 -19 -99 -4 -128 9 -18 11 -33 5 -40 -15 -19 -24 -77 -22 -142 5 -154 1 -627 -5 -682 -6 -55 -4 -65 17 -93 20 -28 23 -44 25 -138 1 -99 15 -173 35 -196 15 -18 8 -55 -12 -66 -28 -15 -25 -31 15 -70 20 -19 40 -51 46 -72 5 -21 23 -53 39 -72 36 -41 36 -41 5 -78 -14 -16 -25 -35 -25 -42 0 -7 -9 -21 -20 -31 -11 -10 -20 -26 -20 -37 0 -23 -19 -24 -27 0 -8 22 -23 32 -47 32 -17 0 -18 -6 -12 -62 5 -59 4 -65 -23 -96 -24 -28 -30 -31 -41 -17 -11 13 -15 12 -31 -10 -11 -13 -28 -27 -39 -30 -11 -4 -26 -18 -34 -33 -22 -40 -32 -4 -17 60 16 70 14 133 -4 148 -21 17 -19 38 10 89 33 57 33 81 0 81 -14 0 -25 6 -26 13 -3 30 4 64 16 83 17 26 20 218 5 309 -5 33 -10 121 -10 195 0 174 0 162 -6 257 -3 46 -1 90 4 100 7 12 6 25 -4 44 -21 41 -29 106 -15 123 9 10 12 60 11 158 0 79 2 186 5 238 13 228 13 233 -15 240 -25 6 -25 8 -32 133 -5 82 -13 137 -23 156 -25 50 -20 68 23 78 27 6 37 14 37 28 0 33 -41 31 -81 -4 -43 -38 -62 -39 -90 -4 -20 25 -23 26 -53 14 -43 -18 -40 -44 12 -79 66 -46 69 -65 73 -562 1 -234 8 -519 14 -635 15 -288 17 -698 4 -885 -9 -134 -14 -162 -37 -211 -30 -62 -34 -89 -13 -89 8 0 21 -21 30 -47 9 -25 22 -53 30 -62 25 -28 46 -103 56 -194 13 -129 45 -152 100 -74 17 23 44 60 61 82 40 54 75 104 96 139 10 15 39 49 66 74 26 25 47 50 47 55 0 5 21 31 48 57 26 26 70 71 98 101 68 72 342 333 355 337 14 5 39 57 39 81 0 11 -9 25 -21 31 -22 13 -29 9 -89 -46 -80 -73 -196 -140 -257 -147 -39 -5 -44 -2 -70 32 -27 34 -28 43 -34 171 -3 74 -11 162 -17 195 -36 194 -40 1173 -6 1378 21 125 72 244 134 312 15 17 35 44 44 61 8 18 36 52 61 77 49 49 55 74 27 100 -26 23 -53 21 -91 -7 -63 -47 -142 -42 -225 15 -53 35 -51 26 -27 114 10 39 22 102 26 140 4 39 14 83 22 100 12 23 14 48 9 114 -4 51 -2 105 5 136 19 87 -12 125 -77 93z m-40 -423 c10 -27 -16 -71 -36 -59 -4 3 -8 21 -8 40 0 27 4 34 19 34 10 0 21 -7 25 -15z m-1294 -299 c0 -38 -16 -57 -26 -32 -9 23 -24 20 -24 -4 0 -11 7 -20 15 -20 8 0 19 -16 24 -37 15 -54 14 -62 -14 -75 -36 -16 -36 -63 -1 -54 38 9 62 -29 40 -62 -14 -21 -14 -25 0 -41 9 -10 16 -31 16 -47 0 -35 13 -55 56 -86 105 -77 134 -101 139 -119 4 -11 15 -19 30 -19 26 0 38 -20 24 -41 -7 -11 -12 -12 -28 -2 -18 11 -23 10 -38 -15 -10 -15 -28 -35 -40 -45 -13 -10 -23 -25 -23 -32 0 -8 -20 -28 -45 -46 -38 -27 -45 -38 -45 -66 0 -36 10 -42 31 -17 12 14 14 14 26 -2 18 -25 16 -89 -3 -109 -13 -12 -14 -19 -5 -28 17 -17 14 -87 -4 -87 -9 0 -15 9 -15 21 0 14 -5 19 -17 17 -16 -3 -18 -16 -16 -116 2 -112 2 -113 33 -138 35 -30 40 -72 15 -131 -8 -19 -15 -44 -15 -54 0 -9 -7 -24 -15 -33 -21 -21 -19 -98 4 -143 11 -21 22 -68 26 -105 6 -65 6 -68 -15 -68 -12 0 -33 9 -47 20 -35 27 -53 25 -53 -5 0 -24 3 -25 34 -20 33 7 34 6 50 -41 12 -35 14 -68 11 -128 -5 -69 -13 -242 -18 -377 -1 -21 10 -56 27 -88 22 -42 26 -61 21 -91 -6 -33 -2 -42 24 -73 36 -41 40 -78 11 -114 -11 -14 -20 -34 -20 -45 0 -33 -24 -98 -37 -98 -7 0 -21 20 -32 46 -20 45 -20 45 -51 23 -38 -29 -38 -36 3 -55 33 -16 33 -16 29 -77 -3 -34 -9 -65 -15 -69 -18 -11 -47 11 -47 37 0 15 -14 41 -34 62 -29 32 -36 35 -50 24 -14 -12 -21 -9 -51 23 -39 41 -49 99 -19 110 12 5 14 15 8 52 -5 37 -3 51 14 73 15 21 18 35 13 66 -8 46 3 91 30 121 23 25 24 38 4 54 -22 18 -21 127 2 152 13 15 14 24 5 56 -21 72 -22 97 -1 131 15 24 19 47 17 84 -3 48 -5 51 -35 59 -40 10 -41 25 -7 80 26 41 27 44 15 118 -6 43 -9 84 -6 92 4 9 1 36 -6 59 -7 24 -13 96 -13 160 -1 84 -6 121 -16 134 -12 14 -11 20 4 46 9 16 16 34 15 41 -2 7 1 58 6 113 5 55 9 175 9 267 1 165 1 167 -21 173 -28 7 -29 20 -3 63 26 43 26 62 -3 62 -27 0 -52 37 -73 112 -8 29 -17 59 -20 66 -3 10 -13 4 -34 -18 -38 -41 -72 -38 -81 7 -6 30 -4 32 24 35 28 3 31 6 32 38 0 30 5 38 38 55 26 14 40 29 44 48 6 31 83 91 90 71 8 -25 31 -47 41 -40 18 11 15 76 -3 76 -29 0 -19 67 13 84 49 27 72 21 72 -18z"/> <path d="M7435 8460 c-7 -23 1 -40 20 -40 8 0 17 5 20 10 9 15 -4 50 -20 50 -8 0 -16 -9 -20 -20z"/> <path d="M7385 8266 c-9 -45 -3 -71 15 -71 11 0 16 14 18 53 2 41 0 52 -12 52 -9 0 -18 -13 -21 -34z"/> <path d="M7392 7358 c-11 -27 -4 -76 12 -80 17 -5 24 48 11 78 -13 29 -13 29 -23 2z"/> <path d="M7390 7166 c0 -14 4 -27 9 -30 13 -9 32 19 25 38 -10 25 -34 19 -34 -8z"/> <path d="M7382 7013 c2 -10 10 -18 18 -18 22 0 18 29 -3 33 -14 3 -18 -1 -15 -15z"/> <path d="M7333 6773 c-25 -5 -26 -7 -17 -40 8 -27 22 -29 40 -5 14 18 19 53 7 51 -5 -1 -18 -4 -30 -6z"/> <path d="M7312 6635 c-16 -35 -15 -37 11 -33 16 2 23 11 25 31 4 35 -20 37 -36 2z"/> <path d="M14904 10023 c-13 -2 -28 -19 -37 -41 -37 -85 -245 -342 -276 -342 -6 0 -29 -26 -52 -57 -24 -32 -48 -61 -54 -65 -26 -16 -105 -96 -105 -106 0 -5 -21 -22 -47 -38 -27 -15 -62 -39 -78 -53 -41 -36 -169 -99 -233 -116 -46 -12 -60 -12 -100 1 -66 19 -85 18 -112 -11 -22 -23 -22 -27 -9 -51 8 -15 30 -38 49 -50 19 -13 54 -46 77 -72 75 -88 75 -85 69 -791 -6 -713 -15 -941 -39 -1022 -15 -46 -29 -67 -88 -123 -62 -59 -70 -70 -67 -99 3 -32 3 -32 78 -40 41 -5 99 -10 128 -11 29 -2 58 -8 64 -14 7 -7 21 -12 33 -12 11 0 34 -7 50 -16 30 -16 162 -67 201 -78 12 -4 29 -15 39 -26 10 -11 26 -20 36 -20 43 0 159 -229 159 -314 0 -31 40 -66 76 -66 22 1 36 11 59 41 84 112 167 192 258 248 20 12 43 31 50 40 6 10 22 21 33 25 24 7 105 92 144 150 14 21 40 55 58 78 17 22 32 46 32 52 0 7 9 21 20 31 11 10 20 30 20 45 0 14 7 35 15 46 24 31 52 99 60 145 4 24 16 63 26 87 34 78 24 105 -43 117 -32 6 -39 4 -44 -11 -4 -11 -17 -42 -30 -71 -13 -28 -24 -57 -24 -63 0 -15 -108 -188 -138 -220 -13 -14 -53 -60 -89 -102 -36 -43 -69 -78 -73 -78 -4 0 -24 -13 -45 -30 -59 -47 -103 -42 -168 18 -81 74 -139 118 -174 130 -18 6 -56 29 -86 51 -48 35 -55 45 -61 85 -4 25 -4 51 0 58 4 7 9 94 11 195 2 192 4 200 56 275 34 49 67 82 115 112 23 14 42 31 42 36 0 5 15 18 34 27 19 10 75 56 126 103 51 47 98 88 105 92 7 4 34 28 61 54 27 26 81 74 119 107 39 33 75 69 81 79 6 11 22 27 36 36 14 9 59 58 100 107 41 50 82 96 91 104 23 18 77 114 77 136 0 23 -58 156 -80 180 -9 11 -22 34 -28 51 -10 30 -28 58 -125 190 -27 36 -55 81 -64 101 -8 20 -32 59 -53 87 -21 29 -52 87 -69 130 -17 43 -40 90 -50 105 -11 15 -25 56 -31 91 -6 36 -23 100 -37 142 -23 69 -25 82 -14 116 7 20 11 53 9 72 -3 37 -21 44 -74 33z m-14 -233 c0 -17 9 -39 20 -50 15 -15 20 -33 20 -79 0 -52 3 -61 25 -75 22 -14 25 -24 25 -75 0 -55 2 -60 45 -103 51 -52 54 -63 24 -94 -16 -17 -21 -35 -21 -74 1 -39 -3 -52 -16 -57 -51 -18 -49 -53 3 -53 42 0 49 11 47 74 -4 99 25 98 69 0 16 -35 38 -68 48 -74 11 -5 22 -23 26 -40 4 -17 15 -34 24 -40 11 -5 20 -25 24 -50 6 -50 22 -70 53 -70 16 0 24 -6 24 -17 0 -10 14 -38 30 -62 35 -51 35 -54 15 -71 -13 -10 -19 -10 -35 5 -19 17 -21 17 -55 -10 -45 -34 -41 -51 12 -47 46 2 60 -19 42 -65 -8 -22 -14 -24 -43 -19 -54 10 -68 -18 -34 -66 15 -20 -13 -58 -43 -58 -10 0 -26 -11 -36 -23 -16 -21 -24 -23 -63 -18 -45 6 -45 6 -46 123 -1 64 -5 129 -8 144 -4 15 -1 49 5 76 13 48 13 48 -20 76 -33 27 -33 27 -12 46 21 19 29 56 12 56 -5 0 -14 -7 -21 -15 -17 -20 -19 -19 -64 21 -37 32 -38 35 -22 47 30 22 16 52 -24 55 -55 4 -64 10 -50 27 17 21 5 44 -30 56 -33 12 -37 21 -16 39 12 9 12 17 4 35 -9 21 -7 27 18 49 29 25 29 25 -1 26 -53 0 -75 -10 -75 -36 0 -25 -33 -49 -56 -40 -8 3 -14 15 -14 26 0 22 -19 27 -38 8 -14 -14 2 -38 24 -38 24 0 15 -19 -11 -26 -33 -8 -53 1 -64 29 -22 57 -73 61 -69 5 3 -30 1 -33 -35 -39 -48 -8 -51 -11 -53 -67 -2 -61 -2 -62 -14 -62 -5 0 -10 16 -10 35 0 49 -37 51 -42 3 -3 -31 -6 -34 -50 -42 -27 -5 -48 -13 -48 -18 0 -12 88 -10 95 2 12 19 44 11 50 -12 11 -51 -2 -174 -25 -231 -23 -58 -23 -58 -1 -81 40 -43 6 -230 -55 -297 -15 -17 -14 -20 14 -47 17 -17 36 -32 44 -35 10 -3 8 -14 -10 -47 -19 -33 -22 -50 -17 -81 9 -55 -9 -97 -43 -101 -33 -4 -35 -22 -4 -26 14 -2 27 -14 33 -30 5 -14 19 -32 29 -39 11 -8 20 -25 20 -38 0 -24 59 -75 87 -75 18 0 43 -29 43 -51 0 -30 -25 -33 -59 -8 -16 12 -37 19 -45 16 -22 -8 -21 -63 1 -75 11 -6 14 -16 9 -28 -7 -18 -9 -17 -26 6 -21 28 -35 22 -45 -21 -4 -17 -1 -30 9 -38 22 -18 20 -57 -3 -73 -11 -8 -21 -27 -23 -43 -2 -25 -9 -31 -43 -40 -79 -20 -83 -37 -24 -96 59 -59 68 -87 62 -196 -7 -108 11 -172 52 -191 13 -6 33 -29 44 -51 12 -22 29 -46 39 -53 24 -17 42 -51 42 -79 0 -20 4 -21 51 -17 48 5 50 4 44 -16 -11 -37 -10 -49 3 -53 7 -3 16 4 19 15 4 18 41 42 65 42 11 0 5 -35 -13 -82 -17 -42 -59 -46 -114 -11 -30 19 -44 35 -45 50 0 31 -10 53 -24 53 -7 0 -23 12 -37 26 -13 14 -34 30 -46 35 -14 5 -23 18 -25 36 -3 29 -4 29 -69 16 -20 -4 -31 1 -47 22 -20 26 -25 27 -76 21 -126 -16 -217 54 -155 120 11 12 24 37 29 56 5 18 15 50 23 72 15 39 14 47 -16 149 -9 32 -8 44 7 72 14 26 17 46 12 83 -5 41 -3 52 14 67 25 22 26 76 4 110 -13 21 -14 28 -4 40 10 12 10 22 2 40 -6 13 -8 39 -5 58 3 23 0 43 -12 60 -19 30 -12 51 16 44 22 -6 69 28 69 48 0 8 -15 18 -32 23 -34 9 -34 7 -25 82 1 14 8 35 15 47 10 19 9 25 -9 42 -17 16 -19 23 -10 40 9 15 9 27 1 42 -7 13 -9 36 -4 62 4 23 7 48 5 55 -1 7 5 22 13 34 14 20 14 24 -4 43 -20 22 -20 22 0 40 16 14 20 31 20 79 0 75 -9 91 -44 82 -25 -6 -26 -8 -26 -87 0 -51 -4 -78 -10 -74 -6 4 -10 73 -10 174 0 174 -12 242 -56 309 -22 34 1 61 37 42 19 -10 24 -10 34 4 7 9 18 16 24 16 7 0 23 11 37 25 54 54 94 67 94 30 0 -20 36 -37 60 -30 33 11 26 54 -10 67 -17 5 -29 15 -27 22 5 15 55 20 71 7 14 -12 146 101 146 125 0 10 13 14 45 14 38 0 45 3 45 19 0 11 -5 23 -11 26 -7 5 -3 16 12 31 12 13 27 34 33 46 9 16 20 22 39 21 23 -1 27 3 33 33 3 19 11 34 17 34 22 0 57 44 57 72 0 25 23 60 47 69 5 2 19 21 32 42 27 45 41 47 41 7z m-188 -619 c13 -11 37 -23 51 -26 21 -6 27 -13 27 -35 0 -15 9 -35 20 -45 11 -10 20 -28 20 -41 0 -12 11 -35 23 -51 26 -31 67 -142 67 -182 0 -13 6 -32 14 -40 19 -21 46 -167 46 -246 0 -53 -5 -72 -34 -123 -45 -79 -108 -159 -154 -192 -20 -15 -43 -34 -51 -43 -7 -9 -19 -17 -27 -17 -7 0 -37 -25 -67 -55 -66 -67 -100 -73 -137 -23 -28 38 -27 24 -1 173 27 155 31 226 35 593 2 285 4 304 23 330 32 43 104 55 145 23z m-322 -2196 c16 -19 9 -49 -13 -53 -9 -2 -31 10 -47 27 -26 25 -28 30 -13 34 36 9 61 7 73 -8z m419 -187 c24 -21 24 -21 -7 -47 -17 -14 -34 -38 -37 -53 -5 -21 -14 -27 -43 -31 -21 -2 -38 -4 -39 -3 -1 1 5 28 12 61 21 88 67 117 114 73z"/> <path d="M14835 9688 c-4 -15 -3 -34 3 -44 8 -14 10 -13 16 10 4 15 2 34 -3 44 -8 14 -10 13 -16 -10z"/> <path d="M14794 9546 c-7 -43 2 -62 22 -45 15 12 18 37 8 63 -10 26 -23 18 -30 -18z"/> <path d="M14596 9365 c4 -8 18 -15 34 -15 16 0 30 7 34 15 4 12 -3 15 -34 15 -31 0 -38 -3 -34 -15z"/> <path d="M14885 9250 c-18 -7 -18 -8 8 -15 32 -9 80 2 72 15 -7 12 -52 12 -80 0z"/> <path d="M15110 8639 c0 -23 53 -69 67 -57 13 11 2 45 -21 60 -17 11 -46 9 -46 -3z"/> <path d="M14150 7130 c-11 -7 -3 -10 28 -10 26 0 41 4 37 10 -8 13 -45 13 -65 0z"/> <path d="M14333 7103 c-26 -10 -13 -33 17 -33 23 0 30 4 30 20 0 20 -19 25 -47 13z"/> <path d="M9310 9685 c0 -11 7 -15 23 -13 12 2 22 8 22 13 0 6 -10 11 -22 13 -16 2 -23 -2 -23 -13z"/> <path d="M8527 9493 c-4 -3 -7 -15 -7 -25 0 -29 44 -20 48 10 3 22 -24 32 -41 15z"/> <path d="M8430 9310 c-16 -29 4 -64 29 -51 28 15 44 39 37 56 -8 22 -53 19 -66 -5z"/> <path d="M8762 9213 c-22 -9 -1 -23 35 -23 30 0 34 2 23 15 -12 15 -34 18 -58 8z"/> <path d="M8627 9154 c-16 -16 -7 -44 14 -44 15 0 20 5 17 22 -3 22 -19 33 -31 22z"/> <path d="M8626 8982 c-8 -13 43 -82 59 -82 20 0 20 54 -1 74 -17 17 -50 21 -58 8z"/> <path d="M8547 8943 c-12 -12 -7 -43 7 -43 13 0 26 20 26 41 0 10 -23 12 -33 2z"/> <path d="M8523 8819 c-21 -21 -16 -59 7 -59 21 0 23 9 12 48 -6 18 -9 21 -19 11z"/> <path d="M8557 8687 c-7 -19 3 -67 14 -67 17 0 31 51 18 66 -14 18 -25 18 -32 1z"/> <path d="M8560 8485 c0 -17 5 -25 13 -22 6 2 12 12 12 22 0 10 -6 20 -12 23 -8 2 -13 -6 -13 -23z"/> <path d="M8625 7053 c-34 -37 -48 -94 -26 -107 11 -7 21 17 21 50 0 14 7 27 18 31 21 7 62 43 62 55 0 21 -45 4 -75 -29z"/> <path d="M8545 6810 c-11 -18 4 -60 21 -60 11 0 14 8 12 32 -3 32 -21 48 -33 28z"/> </g> </svg>